<?xml version="1.0" encoding="UTF-8" standalone="no"?>
<svg width="77px" height="77px" viewBox="0 0 77 77" version="1.1" xmlns="http://www.w3.org/2000/svg" xmlns:xlink="http://www.w3.org/1999/xlink">
    <defs></defs>
    <g id="Page-1" stroke="none" stroke-width="1" fill="none" fill-rule="evenodd">
        <g id="wallet-account" transform="translate(1.000000, 1.000000)" stroke="#FFFFFF">
            <g id="Page-1">
                <g id="Group">
                    <path d="M67.7091,37.8722 C67.8391,36.6672 67.9051,35.4432 67.9051,34.2032 C67.9051,15.4502 52.7031,0.2502 33.9521,0.2502 C15.2001,0.2502 0.0001,15.4502 0.0001,34.2032 C0.0001,43.5132 3.7491,51.9452 9.8171,58.0792 C13.7441,55.3632 21.4861,52.9222 28.0481,50.4412 L28.0481,43.0602 C28.0481,43.0602 23.6731,38.0762 23.6191,34.2032 C21.1801,34.2032 21.1801,28.2982 23.6191,28.2982 C23.6191,27.3092 19.1901,16.4882 26.5721,17.9652 C28.0481,12.0602 44.2861,12.0602 45.7621,17.9652 C46.7861,22.0622 44.2861,27.5732 44.2861,28.2982 C46.7251,28.2982 46.7251,34.2032 44.2861,34.2032 C44.2861,41.5842 39.8571,43.0602 39.8571,43.0602 L39.8571,46.8122" id="Stroke-1" stroke-width="2"></path>
                    <path d="M9.8173,58.0788 C15.9733,64.2998 24.5103,68.1558 33.9523,68.1558 C35.1613,68.1558 36.3553,68.0928 37.5313,67.9688" id="Stroke-3" stroke-width="2"></path>
                    <path d="M63.4817,59.2477 C63.4817,59.4767 63.2967,59.6627 63.0667,59.6627 C62.8377,59.6627 62.6527,59.4767 62.6527,59.2477 C62.6527,59.0187 62.8377,58.8327 63.0667,58.8327 C63.2967,58.8327 63.4817,59.0187 63.4817,59.2477 L63.4817,59.2477 L63.4817,59.2477 Z" id="Stroke-5"></path>
                    <path d="M68.4552,59.6622 C68.4552,60.5742 67.7092,61.3202 66.7972,61.3202 L62.6522,61.3202 C61.7402,61.3202 60.9932,60.5742 60.9932,59.6622 L60.9932,58.8332 C60.9932,57.9212 61.7402,57.1752 62.6522,57.1752 L66.7972,57.1752 C67.7092,57.1752 68.4552,57.9212 68.4552,58.8332 L68.4552,59.6622 L68.4552,59.6622 L68.4552,59.6622 Z" id="Stroke-7"></path>
                    <path d="M65.9689,57.1749 L65.9689,54.6879 C65.9689,53.3199 64.8499,52.2009 63.4819,52.2009 L51.8749,52.2009" id="Stroke-9"></path>
                    <path d="M61.8235,50.5425 L51.8745,50.5425 C51.4165,50.5425 51.0455,50.9135 51.0455,51.3715 C51.0455,51.8295 51.4165,52.2005 51.8745,52.2005" id="Stroke-11"></path>
                    <path d="M65.9689,61.3202 L65.9689,63.8072 C65.9689,65.1752 64.8499,66.2952 63.4819,66.2952 L51.8749,66.2952 C50.5069,66.2952 49.3879,65.1752 49.3879,63.8072 L49.3879,51.3712 C49.3879,50.0032 50.5069,48.8842 51.8749,48.8842 L61.8239,48.8842 C63.1919,48.8842 64.3109,49.6302 64.3109,50.5422 L64.3109,52.2002" id="Stroke-13"></path>
                    <path d="M74.6732,57.5896 C74.6732,67.2056 66.8772,74.9996 57.2632,74.9996 C47.6472,74.9996 39.8522,67.2056 39.8522,57.5896 C39.8522,47.9746 47.6472,40.1796 57.2632,40.1796 C66.8772,40.1796 74.6732,47.9746 74.6732,57.5896 L74.6732,57.5896 L74.6732,57.5896 Z" id="Stroke-15" stroke-width="2"></path>
                </g>
            </g>
        </g>
    </g>
</svg>