<?xml version="1.0" encoding="UTF-8" standalone="no"?>
<svg width="77px" height="77px" viewBox="0 0 77 77" version="1.1" xmlns="http://www.w3.org/2000/svg" xmlns:xlink="http://www.w3.org/1999/xlink">
    <defs></defs>
    <g id="Page-1" stroke="none" stroke-width="1" fill="none" fill-rule="evenodd">
        <g id="bitcoin-exchange" transform="translate(1.000000, 1.000000)">
            <g id="Page-1">
                <g id="Group">
                    <path d="M67.7091,37.8722 C67.8391,36.6672 67.9051,35.4432 67.9051,34.2032 C67.9051,15.4502 52.7031,0.2502 33.9521,0.2502 C15.2001,0.2502 0.0001,15.4502 0.0001,34.2032 C0.0001,43.5132 3.7491,51.9452 9.8171,58.0792 C10.2211,57.7992 10.5211,58.5242 11.0001,58.2502" id="Stroke-1" stroke="#FFFFFF" stroke-width="2"></path>
                    <path d="M9.8173,58.0788 C15.9733,64.2998 24.5103,68.1558 33.9523,68.1558 C35.1613,68.1558 36.3553,68.0928 37.5313,67.9688" id="Stroke-3" stroke="#FFFFFF" stroke-width="2"></path>
                    <path d="M74.6732,57.5896 C74.6732,67.2056 66.8772,74.9996 57.2632,74.9996 C47.6472,74.9996 39.8522,67.2056 39.8522,57.5896 C39.8522,47.9746 47.6472,40.1796 57.2632,40.1796 C66.8772,40.1796 74.6732,47.9746 74.6732,57.5896 L74.6732,57.5896 L74.6732,57.5896 Z" id="Stroke-5" stroke="#FFFFFF" stroke-width="2"></path>
                    <path d="M11,58.2504 L11,53.2504 L17,53.2504 L17,63.2504" id="Stroke-7" stroke="#FFFFFF" stroke-width="2"></path>
                    <path d="M29,67.2504 L29,43.2504 L23,43.2504 L23,66.2504" id="Stroke-9" stroke="#FFFFFF" stroke-width="2"></path>
                    <path d="M37,47.2504 L35,47.2504 L35,67.2504" id="Stroke-11" stroke="#FFFFFF" stroke-width="2"></path>
                    <path d="M16,39.2504 C16,40.3554 15.105,41.2504 14,41.2504 C12.896,41.2504 12,40.3554 12,39.2504 C12,38.1464 12.896,37.2504 14,37.2504 C15.105,37.2504 16,38.1464 16,39.2504 L16,39.2504 L16,39.2504 Z" id="Stroke-13" stroke="#FFFFFF" stroke-width="2"></path>
                    <path d="M28,29.2504 C28,30.3554 27.105,31.2504 26,31.2504 C24.896,31.2504 24,30.3554 24,29.2504 C24,28.1464 24.896,27.2504 26,27.2504 C27.105,27.2504 28,28.1464 28,29.2504 L28,29.2504 L28,29.2504 Z" id="Stroke-15" stroke="#FFFFFF" stroke-width="2"></path>
                    <path d="M40,33.2504 C40,34.3554 39.105,35.2504 38,35.2504 C36.896,35.2504 36,34.3554 36,33.2504 C36,32.1464 36.896,31.2504 38,31.2504 C39.105,31.2504 40,32.1464 40,33.2504 L40,33.2504 L40,33.2504 Z" id="Stroke-17" stroke="#FFFFFF" stroke-width="2"></path>
                    <path d="M52,19.2504 C52,20.3554 51.105,21.2504 50,21.2504 C48.896,21.2504 48,20.3554 48,19.2504 C48,18.1464 48.896,17.2504 50,17.2504 C51.105,17.2504 52,18.1464 52,19.2504 L52,19.2504 L52,19.2504 Z" id="Stroke-19" stroke="#FFFFFF" stroke-width="2"></path>
                    <path d="M15.5371,37.9701 L24.4651,30.5301" id="Stroke-21" stroke="#FFFFFF" stroke-width="2"></path>
                    <path d="M27.8896,29.8808 L36.1606,32.6358" id="Stroke-23" stroke="#FFFFFF" stroke-width="2"></path>
                    <path d="M48.6992,20.768 L39.3012,31.732" id="Stroke-25" stroke="#FFFFFF" stroke-width="2"></path>
                    <path d="M54.0538,64.5459 C54.0538,64.9239 54.3638,65.2349 54.7428,65.2349 L57.4728,65.2349 C57.8518,65.2349 58.4718,65.2279 58.8508,65.2189 C58.8508,65.2189 59.8198,65.1949 60.4768,65.1159 C61.1338,65.0369 61.6768,64.8749 62.1028,64.6289 C62.5308,64.3849 62.8518,64.0349 63.0648,63.5839 C63.2788,63.1339 63.3858,62.5359 63.3858,61.7919 C63.3858,61.0799 63.2668,60.5059 63.0298,60.0709 C62.7918,59.6349 62.4508,59.2989 62.0078,59.0619 C61.5658,58.8239 61.0348,58.6619 60.4178,58.5749 C59.7998,58.4879 59.0408,58.4649 59.0408,58.4649 C58.6618,58.4539 58.0418,58.4439 57.6628,58.4439 L54.7428,58.4439 C54.3638,58.4439 54.0538,58.7539 54.0538,59.1329 L54.0538,64.5459 L54.0538,64.5459 Z M54.0538,56.3769 C54.0538,56.7569 54.3638,57.0669 54.7428,57.0669 L57.4488,57.0669 C57.8278,57.0669 58.4478,57.0519 58.8258,57.0349 C58.8258,57.0349 59.6808,56.9959 60.2518,56.8529 C60.8218,56.7109 61.2798,56.5019 61.6288,56.2239 C61.9758,55.9469 62.2258,55.6069 62.3768,55.2029 C62.5258,54.7989 62.6018,54.3359 62.6018,53.8139 C62.6018,53.2759 62.5148,52.8209 62.3408,52.4489 C62.1668,52.0769 61.8898,51.7759 61.5098,51.5459 C61.1298,51.3169 60.6348,51.1509 60.0268,51.0469 C59.4168,50.9449 58.4708,50.9149 58.4708,50.9149 C58.0918,50.9029 57.4718,50.8929 57.0928,50.8929 L54.7428,50.8929 C54.3638,50.8929 54.0538,51.2029 54.0538,51.5819 L54.0538,56.3769 L54.0538,56.3769 Z M53.1288,66.6119 C52.7488,66.6119 52.4388,66.3019 52.4388,65.9219 L52.4388,50.2059 C52.4388,49.8259 52.7488,49.5169 53.1288,49.5169 L57.9238,49.5169 C58.3028,49.5169 58.9228,49.5339 59.3008,49.5539 C59.3008,49.5539 60.4648,49.6189 61.1778,49.8249 C61.8898,50.0309 62.4708,50.3239 62.9218,50.7029 C63.3738,51.0829 63.7018,51.5379 63.9078,52.0689 C64.1138,52.5989 64.2168,53.1809 64.2168,53.8139 C64.2168,54.4149 64.1368,54.9339 63.9788,55.3689 C63.8208,55.8049 63.6148,56.1689 63.3618,56.4619 C63.1088,56.7549 62.8188,56.9829 62.4948,57.1499 C62.1708,57.3159 62.1528,57.3199 62.1528,57.3199 C61.7858,57.4159 61.4858,57.5049 61.4858,57.5179 C61.4858,57.5309 61.7828,57.6339 62.1448,57.7459 C62.1448,57.7459 63.5558,58.1829 64.1338,58.9419 C64.7108,59.7029 64.9998,60.6519 64.9998,61.7919 C64.9998,62.6789 64.8618,63.4299 64.5848,64.0479 C64.3078,64.6649 63.9238,65.1639 63.4338,65.5429 C62.9428,65.9229 62.3528,66.1969 61.6648,66.3619 C60.9758,66.5289 60.1088,66.5749 60.1088,66.5749 C59.7298,66.5949 59.1098,66.6119 58.7308,66.6119 L53.1288,66.6119 L53.1288,66.6119 Z" id="Fill-27" fill="#FFFFFF"></path>
                    <path d="M57.9391,69.7974 C57.5581,69.7974 57.2501,69.4884 57.2501,69.1074 L57.2501,47.0514 C57.2501,46.6704 57.5581,46.3614 57.9391,46.3614 C58.3201,46.3614 58.6281,46.6704 58.6281,47.0514 L58.6281,69.1074 C58.6281,69.4884 58.3201,69.7974 57.9391,69.7974" id="Fill-29" fill="#FFFFFF"></path>
                </g>
            </g>
        </g>
    </g>
</svg>