<?xml version="1.0" encoding="utf-8"?>
<!-- Generator: Adobe Illustrator 18.1.1, SVG Export Plug-In . SVG Version: 6.00 Build 0)  -->
<svg version="1.1" id="Layer_1" xmlns="http://www.w3.org/2000/svg" xmlns:xlink="http://www.w3.org/1999/xlink" x="0px" y="0px"
	 viewBox="0 0 80 80" enable-background="new 0 0 80 80" xml:space="preserve">
<g>
	<path fill="none" stroke="#2974B1" stroke-width="2" stroke-miterlimit="10" d="M52.2,8.5c0,3.6-11.1,6.5-24.7,6.5
		C14,15,2.9,12.2,2.9,8.5c0-3.6,11.1-6.5,24.7-6.5C41.1,2.1,52.2,4.9,52.2,8.5z"/>
	<path fill="none" stroke="#2974B1" stroke-width="2" stroke-miterlimit="10" d="M52.2,8.5v9.1c0,3.9-11.7,6.5-24.7,6.5
		S2.9,21.5,2.9,17.6V8.5"/>
	<path fill="none" stroke="#2974B1" stroke-width="2" stroke-miterlimit="10" d="M52.2,17.6v9.1c0,3.9-11.7,6.5-24.7,6.5
		S2.9,30.6,2.9,26.7v-9.1"/>
	<path fill="none" stroke="#2974B1" stroke-width="2" stroke-miterlimit="10" d="M52.2,26.7v9.1c0,3.9-11.7,6.5-24.7,6.5
		S2.9,39.7,2.9,35.8v-9.1"/>
	<path fill="none" stroke="#2974B1" stroke-width="2" stroke-miterlimit="10" d="M78.2,52.7c0,3.6-11.1,6.5-24.7,6.5
		c-13.6,0-24.7-2.9-24.7-6.5c0-3.6,11.1-6.5,24.7-6.5C67.1,46.2,78.2,49.1,78.2,52.7z"/>
	<path fill="none" stroke="#2974B1" stroke-width="2" stroke-miterlimit="10" d="M78.2,52.7v9.1c0,3.9-11.7,6.5-24.7,6.5
		s-24.7-2.6-24.7-6.5v-9.1"/>
	<path fill="none" stroke="#2974B1" stroke-width="2" stroke-miterlimit="10" d="M78.2,61.8v9.1c0,3.9-11.7,6.5-24.7,6.5
		s-24.7-2.6-24.7-6.5v-9.1"/>
	<path fill="none" stroke="#2974B1" stroke-width="2" stroke-miterlimit="10" d="M2.9,35.8v9.1c0,3.9,11.7,6.5,24.7,6.5
		c0.6,0,1.2,0,1.8,0"/>
	<path fill="none" stroke="#2974B1" stroke-width="2" stroke-miterlimit="10" d="M51.8,46.3c0.3-0.4,0.5-0.9,0.5-1.3v-9.1"/>
	<path fill="none" stroke="#2974B1" stroke-width="2" stroke-miterlimit="10" d="M2.9,44.9V54c0,3.9,11.7,6.5,24.7,6.5
		c0.4,0,0.9,0,1.3,0"/>
</g>
</svg>
