<?xml version="1.0" encoding="utf-8"?>
<!-- Generator: Adobe Illustrator 18.1.1, SVG Export Plug-In . SVG Version: 6.00 Build 0)  -->
<svg version="1.1" id="Layer_1" xmlns="http://www.w3.org/2000/svg" xmlns:xlink="http://www.w3.org/1999/xlink" x="0px" y="0px"
	 viewBox="0 0 80 80" enable-background="new 0 0 80 80" xml:space="preserve">
<g>
	<polyline fill="none" stroke="#2974B1" stroke-width="2" stroke-miterlimit="10" points="69.8,56.9 59.4,67.3 54.2,60.8 	"/>
	<circle fill="none" stroke="#2974B1" stroke-width="2" stroke-miterlimit="10" cx="62" cy="62.1" r="15.6"/>
	<path fill="none" stroke="#2974B1" stroke-width="2" stroke-miterlimit="10" d="M46.3,44.1c-2.6-0.8-5-1.9-7.8-2.9v-7.8
		c0,0,4.6-2.3,4.6-10.2c2.6,0,2.6-6.8,0-6.8c0-0.8,2.7-5.3,1.6-9.6c-1.6-6.3-19.8-6.3-21.4,0c-7.8-1.6-3.3,8.8-3.3,9.9
		c-2.6,0-2.6,6.6,0,6.6c0,7.8,5.4,11.5,5.4,11.5v6.5c-9.1,3.5-20.5,5.9-21.8,10C2.1,55.9,2,64.7,2,64.7h33.9"/>
</g>
</svg>
