<?xml version="1.0" ?><svg height="182px" version="1.1" viewBox="0 0 182 182" width="182px" xmlns="http://www.w3.org/2000/svg" xmlns:sketch="http://www.bohemiancoding.com/sketch/ns" xmlns:xlink="http://www.w3.org/1999/xlink"><title/><defs/><g fill="none" fill-rule="evenodd" id="Page-1" stroke="none" stroke-width="1"><g id="Austria" transform="translate(1.000000, 1.000000)"><path d="M167.959589,135.000025 C175.617252,121.762218 180,106.392932 180,90 C180,73.6070678 175.617252,58.2377819 167.959589,44.9999749 L12.0403964,45 C4.38274789,58.2377819 0,73.6070678 0,90 C0,106.392932 4.38274789,121.762218 12.0404109,135.000025 L167.959604,135 Z M167.959589,135.000025" fill="#FFFFFF" id="Oval-1-copy-5"/><path d="M167.959589,135.000025 C152.398162,161.901074 123.312698,180 90,180 C56.6873022,180 27.6018377,161.901074 12.0404109,135.000025 L167.959604,135 Z M167.959589,44.9999749 C152.398162,18.0989265 123.312698,0 90,0 C56.6873022,0 27.6018377,18.0989265 12.0404109,44.9999749 L167.959604,45 Z M167.959589,44.9999749" fill="#CA4738" id="Oval-1-copy-6"/></g></g></svg>