<?xml version="1.0" ?><svg height="182px" version="1.1" viewBox="0 0 182 182" width="182px" xmlns="http://www.w3.org/2000/svg" xmlns:sketch="http://www.bohemiancoding.com/sketch/ns" xmlns:xlink="http://www.w3.org/1999/xlink"><title/><defs/><g fill="none" fill-rule="evenodd" id="Page-1" stroke="none" stroke-width="1"><g id="Denmark" transform="translate(1.000000, 1.000000)"><path d="M49.9999943,170.644802 C62.0495853,176.632938 75.6315827,180 90,180 C136.325539,180 174.47627,144.999507 179.450712,100 L179.450712,100 L50,100 L50,170.644805 Z M30,157.083197 C13.9223855,142.693343 3.04855005,122.608679 0.549287698,100 L30,100 L30,157.083197 Z M49.9999943,9.35519833 C62.0495852,3.36706168 75.6315827,0 90,0 C136.325539,0 174.47627,35.0004935 179.450712,80 L179.450712,80 L50,80 L50,9.35519552 Z M30,22.916803 C13.9223855,37.3066571 3.04855005,57.3913208 0.549287698,80 L30,80 L30,22.916803 Z M30,22.916803" fill="#CA4638" id="Oval-1-copy-4"/><path d="M49.9999927,9.35519916 C42.7189439,12.9735724 35.9974173,17.5489694 30,22.916803 L30,157.083197 C35.9974173,162.451031 42.7189439,167.026428 49.9999927,170.644801 L50,9.35519552 Z M49.9999927,9.35519916" fill="#FFFFFF" id="Oval-1-copy-5"/><path d="M179.450712,100 C179.813667,96.7166615 180,93.380091 180,90 C180,86.619909 179.813667,83.2833385 179.450712,80 L0.549287698,80 C0.186333089,83.2833385 0,86.619909 0,90 C0,93.380091 0.186333089,96.7166615 0.549287698,100 L179.450712,100 Z M179.450712,100" fill="#FFFFFF" id="Oval-1-copy-6"/></g></g></svg>