<?xml version="1.0" ?><svg height="182px" version="1.1" viewBox="0 0 182 182" width="182px" xmlns="http://www.w3.org/2000/svg" xmlns:sketch="http://www.bohemiancoding.com/sketch/ns" xmlns:xlink="http://www.w3.org/1999/xlink"><title/><defs/><g fill="none" fill-rule="evenodd" id="Asia-Pacific" stroke="none" stroke-width="1"><g id="SG" transform="translate(-599.000000, -599.000000)"><g transform="translate(600.000000, 600.000000)"><path d="M180,90 C180,139.70563 139.70563,180 90,180 C40.2943701,180 0,139.70563 0,90 L180,90 Z M180,90" fill="#FFFFFF" id="Oval-15-copy"/><path d="M180,90 C180,40.2943701 139.70563,0 90,0 C40.2943701,0 0,40.2943701 0,90 L180,90 Z M180,90" fill="#CA4638" id="Oval-15-copy-2"/><path d="M90,79.5671443 C88.3095972,79.8517692 86.5722795,80 84.8,80 C67.7896289,80 54,66.3446857 54,49.5 C54,32.6553143 67.7896289,19 84.8,19 C86.5722795,19 88.3095972,19.1482308 90,19.4328557 C75.4658853,21.8800656 64.4,34.4103313 64.4,49.5 C64.4,64.5896687 75.4658853,77.1199344 90,79.5671443 Z M90,79.5671443" fill="#FFFFFF" id="Oval-148"/><path d="M96.532876,34.8882158 L92.4471257,37.097594 L93.2274344,32.4180564 L89.9219924,29.1039895 L94.4900014,28.4212535 L96.5328762,24.1636701 L98.5757523,28.4212546 L103.143761,29.1039929 L99.8383176,32.4180572 L100.618626,37.0975941 L96.532876,34.8882158 Z M110.935013,45.3519796 L107.571203,42.1489356 L112.262836,41.4449966 L114.393263,37.2772315 L116.454176,41.4106892 L121.134662,42.037913 L117.716742,45.2964695 L118.479011,49.8518816 L114.305711,47.7323205 L110.096335,49.9204947 L110.935013,45.3519796 Z M105.433887,62.2827064 L107.440688,58.0937382 L109.559969,62.3382176 L114.182087,63.076464 L110.887792,66.3138173 L111.737617,70.9590463 L107.58235,68.7153605 L103.48545,70.8480217 L104.211651,66.2239966 L100.829805,62.8968258 L105.433887,62.2827064 Z M87.6318675,62.2827073 L92.2359489,62.8968266 L88.8541027,66.2239981 L89.5803017,70.8480245 L85.4834027,68.7153612 L81.3281376,70.9590468 L82.1779615,66.3138162 L78.8836684,63.0764612 L83.5057863,62.3382177 L85.6250659,58.0937388 L87.6318675,62.2827073 Z M82.1307402,45.3519809 L82.9694175,49.9204958 L78.7600413,47.7323215 L74.5867387,49.8518806 L75.3490106,45.2964689 L71.9310913,42.0379138 L76.6115781,41.4106892 L78.6724931,37.2772326 L80.8029175,41.4449981 L85.4945502,42.1489368 L82.1307402,45.3519809 Z M82.1307402,45.3519809" fill="#FFFFFF" id="Star-32"/></g></g></g></svg>