<?xml version="1.0" ?><svg height="182px" version="1.1" viewBox="0 0 182 182" width="182px" xmlns="http://www.w3.org/2000/svg" xmlns:sketch="http://www.bohemiancoding.com/sketch/ns" xmlns:xlink="http://www.w3.org/1999/xlink"><title/><defs/><g fill="none" fill-rule="evenodd" id="Page-1" stroke="none" stroke-width="1"><g id="Slovenia" transform="translate(1.000000, 1.000000)"><path d="M174.878829,120 C162.523738,154.955772 129.186567,180 90,180 C50.8134331,180 17.4762623,154.955772 5.12117078,120 L174.878833,120 Z M174.878829,120" fill="#CA4738" id="Oval-1-copy-4"/><path d="M174.878829,120.000001 C178.195374,110.616633 180,100.519063 180,90 C180,79.480937 178.195374,69.3833673 174.878829,59.9999996 L5.12116698,60 C1.80462645,69.3833673 0,79.480937 0,90 C0,100.519063 1.80462645,110.616633 5.12117078,120 L174.878833,120 Z M174.878829,120.000001" fill="#153973" id="Oval-1-copy-5"/><path d="M174.878829,59.9999996 C162.523738,25.0442275 129.186567,0 90,0 C50.8134331,0 17.4762623,25.0442275 5.12117078,59.9999996 L174.878833,60 Z M174.878829,59.9999996" fill="#FFFFFF" id="Oval-1-copy-5"/><g id="Group" transform="translate(28.000000, 29.000000)"><path d="M52.7673438,39.2088773 L55,6.19872407 C37.594378,-2.06624136 17.405622,-2.06624136 0,6.19872407 L2.23265625,39.2088773 C3.23582007,54.0407913 13.298137,66.7010993 27.5,71 C41.701863,66.7010993 51.7641799,54.0407913 52.7673437,39.2088773" fill="#005DA4" id="Shape"/><path d="M7,43.2865309 C9.37673429,53.8704569 17.1400623,62.4720232 27.5,66 C37.8599377,62.4720232 45.6232657,53.8704569 48,43.2865309 L37.75,29.762177 L33.65,35.1719186 L27.5,23 L21.35,35.1719186 L17.25,29.762177 L7,43.2865309" fill="#FFFFFF" id="Shape"/><path d="M8,49.9989081 C10.289568,51.3307855 13.110432,51.3307855 15.4,49.9989081 C17.689568,48.6670306 20.510432,48.6670306 22.8,49.9989081 C25.089568,51.3307855 27.910432,51.3307855 30.2,49.9989081 C32.489568,48.6670306 35.310432,48.6670306 37.6,49.9989081 C39.889568,51.3307855 42.710432,51.3307855 45,49.9989081 L45,52.0010919 C42.710432,53.3329694 39.889568,53.3329694 37.6,52.0010919 C35.310432,50.6692145 32.489568,50.6692145 30.2,52.0010919 C27.910432,53.3329694 25.089568,53.3329694 22.8,52.0010919 C20.510432,50.6692145 17.689568,50.6692145 15.4,52.0010919 C13.110432,53.3329694 10.289568,53.3329694 8,52.0010919 C8,52.0010919 10.289568,53.3329694 8,52.0010919 L8,49.9989081 L8,49.9989081 Z M8,49.9989081" fill="#005DA4" id="Shape"/><path d="M8,53.9989081 C10.1658075,55.3307855 12.8341925,55.3307855 15,53.9989081 C17.1658075,52.6670306 19.8341925,52.6670306 22,53.9989081 C24.1658075,55.3307855 26.8341925,55.3307855 29,53.9989081 C31.1658075,52.6670306 33.8341925,52.6670306 36,53.9989081 C38.1658075,55.3307855 40.8341925,55.3307855 43,53.9989081 L43,56.0010919 C40.8341925,57.3329694 38.1658075,57.3329694 36,56.0010919 C33.8341925,54.6692145 31.1658075,54.6692145 29,56.0010919 C26.8341925,57.3329694 24.1658075,57.3329694 22,56.0010919 C19.8341925,54.6692145 17.1658075,54.6692145 15,56.0010919 C12.8341925,57.3329694 10.1658075,57.3329694 8,56.0010919 C8,56.0010919 10.1658075,57.3329694 8,56.0010919 L8,53.9989081 L8,53.9989081 Z M8,53.9989081" fill="#005DA4" id="Shape"/><path d="M27,13 L27.4618802,14.3071796 L29,14 L27.9237604,15 L29,16 L27.4618802,15.6928204 L27,17 L26.5381198,15.6928204 L25,16 L26.0762396,15 L25,14 L26.5381198,14.3071796 L26.5381198,14.3071796 L27,13 L27,13 Z M27,13" fill="#FFDD00" id="Shape"/><path d="M20,4 L20.4618802,5.3071796 L22,5 L20.9237604,6 L22,7 L20.4618802,6.6928204 L20,8 L19.5381198,6.6928204 L18,7 L19.0762396,6 L18,5 L19.5381198,5.3071796 L19.5381198,5.3071796 L20,4 L20,4 Z M20,4" fill="#FFDD00" id="Shape"/><path d="M35,4 L35.4618802,5.3071796 L37,5 L35.9237604,6 L37,7 L35.4618802,6.6928204 L35,8 L34.5381198,6.6928204 L33,7 L34.0762396,6 L33,5 L34.5381198,5.3071796 L34.5381198,5.3071796 L35,4 L35,4 Z M35,4" fill="#FFDD00" id="Shape"/><path d="M1.92983542,5 L4.21274792,38.9183087 C5.14523186,52.7726643 14.3720029,64.654553 27.5,68.906756 C40.6279971,64.654553 49.8547681,52.7726643 50.7872521,38.9183087 L53.0701646,5 C53.7085818,5.30463163 54.3519478,5.59863442 55,5.8818883 L52.7673438,39.0534396 C51.7641799,53.9578719 41.701863,66.6800805 27.5,71 C13.298137,66.6800805 3.23582007,53.9578719 2.23265625,39.0534396 L0,5.8818883 C0.648052172,5.59863442 1.29141823,5.30463163 1.92983542,5" fill="#ED1C24" id="Shape"/></g></g></g></svg>