<?xml version="1.0" encoding="UTF-8" standalone="no"?>
<svg width="48px" height="62px" viewBox="0 0 48 62" version="1.1" xmlns="http://www.w3.org/2000/svg" xmlns:xlink="http://www.w3.org/1999/xlink" xmlns:sketch="http://www.bohemiancoding.com/sketch/ns">
    <!-- Generator: Sketch 3.2.2 (9983) - http://www.bohemiancoding.com/sketch -->
    <title>Imported Layers</title>
    <desc>Created with Sketch.</desc>
    <defs></defs>
    <g id="Page-1" stroke="none" stroke-width="1" fill="none" fill-rule="evenodd" sketch:type="MSPage">
        <g id="Portrait-Retina" sketch:type="MSArtboardGroup" transform="translate(-1004.000000, -210.000000)" fill="#FFFFFF" opacity="0.852903451">
            <g id="Main-Title" sketch:type="MSLayerGroup" transform="translate(450.000000, -332.000000)">
                <g id="Logo-circle" sketch:type="MSShapeGroup">
                    <path d="M601.463323,566.957667 C602.437583,560.443396 597.479104,556.941478 590.699048,554.605336 L592.898399,545.780931 L587.528497,544.442278 L585.387265,553.034139 C583.975582,552.682264 582.525663,552.350278 581.08492,552.021352 L583.241446,543.372885 L577.874603,542.034231 L575.673723,550.855576 C574.505223,550.589375 573.358135,550.326234 572.244694,550.049324 L572.250812,550.021786 L564.845211,548.172149 L563.416704,553.909236 C563.416704,553.909236 567.400923,554.82258 567.316804,554.879186 C569.491683,555.422297 569.884752,556.861924 569.818985,558.003221 L567.313745,568.056128 C567.463631,568.094375 567.657871,568.149451 567.871994,568.235125 C567.693049,568.190758 567.501867,568.141801 567.304568,568.094375 L563.792949,582.177011 C563.526824,582.837923 562.852337,583.829292 561.332062,583.452939 C561.385593,583.530963 557.428904,582.478399 557.428904,582.478399 L554.763071,588.627026 L561.751132,590.369571 C563.051165,590.695437 564.325198,591.036603 565.579348,591.35788 L563.357055,600.283257 L568.72084,601.621911 L570.921719,592.791387 C572.386933,593.189158 573.809323,593.556331 575.201123,593.902087 L573.00789,602.691304 L578.377792,604.029957 L580.600084,595.121409 C589.756907,596.854774 596.642494,596.155614 599.540804,587.871261 C601.876275,581.200941 599.424565,577.353268 594.606795,574.844249 C598.115355,574.034937 600.758246,571.726333 601.463323,566.957667 L601.463323,566.957667 Z M589.194069,584.167397 C587.534614,590.837717 576.306916,587.231767 572.666823,586.327602 L575.615604,574.503083 C579.255697,575.411838 590.928466,577.210988 589.194069,584.167397 L589.194069,584.167397 Z M590.855052,566.861284 C589.340896,572.928827 579.995951,569.846099 576.96458,569.090333 L579.63806,558.365805 C582.669431,559.121571 592.431916,560.532129 590.855052,566.861284 L590.855052,566.861284 Z" id="Imported-Layers"></path>
                </g>
            </g>
        </g>
    </g>
</svg>