<?xml version="1.0" encoding="UTF-8" standalone="no"?>
<svg width="34px" height="32px" viewBox="0 0 34 32" version="1.1" xmlns="http://www.w3.org/2000/svg" xmlns:xlink="http://www.w3.org/1999/xlink" xmlns:sketch="http://www.bohemiancoding.com/sketch/ns">
    <!-- Generator: Sketch 3.4 (15588) - http://www.bohemiancoding.com/sketch -->
    <title>Imported-Layers</title>
    <desc>Created with Sketch.</desc>
    <defs></defs>
    <g id="Page-1" stroke="none" stroke-width="1" fill="none" fill-rule="evenodd" sketch:type="MSPage">
        <g id="Imported-Layers" sketch:type="MSLayerGroup" fill="#092037">
            <path d="M33.4137931,31.1794872 L0.586206897,31.1794872 C0.262034483,31.1794872 0,30.9108639 0,30.5798817 C0,30.2488994 0.262034483,29.9802761 0.586206897,29.9802761 L33.4137931,29.9802761 C33.7379655,29.9802761 34,30.2488994 34,30.5798817 C34,30.9108639 33.7379655,31.1794872 33.4137931,31.1794872" id="Fill-1" sketch:type="MSShapeGroup"></path>
            <path d="M31.0689655,28.7810651 L24.0344828,28.7810651 C23.7103103,28.7810651 23.4482759,28.5124418 23.4482759,28.1814596 C23.4482759,27.8504773 23.7103103,27.581854 24.0344828,27.581854 L31.0689655,27.581854 C31.3925517,27.581854 31.6551724,27.8504773 31.6551724,28.1814596 C31.6551724,28.5124418 31.3925517,28.7810651 31.0689655,28.7810651" id="Fill-2" sketch:type="MSShapeGroup"></path>
            <path d="M31.0689655,15.5897436 L24.0344828,15.5897436 C23.7103103,15.5897436 23.4482759,15.3211203 23.4482759,14.9901381 C23.4482759,14.6585562 23.7103103,14.3905325 24.0344828,14.3905325 L31.0689655,14.3905325 C31.3925517,14.3905325 31.6551724,14.6585562 31.6551724,14.9901381 C31.6551724,15.3211203 31.3925517,15.5897436 31.0689655,15.5897436" id="Fill-3" sketch:type="MSShapeGroup"></path>
            <path d="M24.6206897,14.9901381 L25.7931034,14.9901381 L25.7931034,28.1814596 L24.6206897,28.1814596 L24.6206897,14.9901381 L24.6206897,14.9901381 Z" id="Fill-4" sketch:type="MSShapeGroup"></path>
            <path d="M26.9655172,14.9901381 L28.137931,14.9901381 L28.137931,28.1814596 L26.9655172,28.1814596 L26.9655172,14.9901381 L26.9655172,14.9901381 Z" id="Fill-5" sketch:type="MSShapeGroup"></path>
            <path d="M29.3103448,14.9901381 L30.4827586,14.9901381 L30.4827586,28.1814596 L29.3103448,28.1814596 L29.3103448,14.9901381 L29.3103448,14.9901381 Z" id="Fill-6" sketch:type="MSShapeGroup"></path>
            <path d="M9.96551724,28.7810651 L2.93103448,28.7810651 C2.60686207,28.7810651 2.34482759,28.5124418 2.34482759,28.1814596 C2.34482759,27.8504773 2.60686207,27.581854 2.93103448,27.581854 L9.96551724,27.581854 C10.2891034,27.581854 10.5517241,27.8504773 10.5517241,28.1814596 C10.5517241,28.5124418 10.2891034,28.7810651 9.96551724,28.7810651" id="Fill-7" sketch:type="MSShapeGroup"></path>
            <path d="M9.96551724,15.5897436 L2.93103448,15.5897436 C2.60686207,15.5897436 2.34482759,15.3211203 2.34482759,14.9901381 C2.34482759,14.6585562 2.60686207,14.3905325 2.93103448,14.3905325 L9.96551724,14.3905325 C10.2891034,14.3905325 10.5517241,14.6585562 10.5517241,14.9901381 C10.5517241,15.3211203 10.2891034,15.5897436 9.96551724,15.5897436" id="Fill-8" sketch:type="MSShapeGroup"></path>
            <path d="M3.51724138,14.9901381 L4.68965517,14.9901381 L4.68965517,28.1814596 L3.51724138,28.1814596 L3.51724138,14.9901381 L3.51724138,14.9901381 Z" id="Fill-9" sketch:type="MSShapeGroup"></path>
            <path d="M5.86206897,14.9901381 L7.03448276,14.9901381 L7.03448276,28.1814596 L5.86206897,28.1814596 L5.86206897,14.9901381 L5.86206897,14.9901381 Z" id="Fill-10" sketch:type="MSShapeGroup"></path>
            <path d="M8.20689655,14.9901381 L9.37931034,14.9901381 L9.37931034,28.1814596 L8.20689655,28.1814596 L8.20689655,14.9901381 L8.20689655,14.9901381 Z" id="Fill-11" sketch:type="MSShapeGroup"></path>
            <path d="M20.5172414,28.7810651 L13.4827586,28.7810651 C13.1585862,28.7810651 12.8965517,28.5124418 12.8965517,28.1814596 C12.8965517,27.8504773 13.1585862,27.581854 13.4827586,27.581854 L20.5172414,27.581854 C20.8408276,27.581854 21.1034483,27.8504773 21.1034483,28.1814596 C21.1034483,28.5124418 20.8408276,28.7810651 20.5172414,28.7810651" id="Fill-12" sketch:type="MSShapeGroup"></path>
            <path d="M20.5172414,15.5897436 L13.4827586,15.5897436 C13.1585862,15.5897436 12.8965517,15.3211203 12.8965517,14.9901381 C12.8965517,14.6585562 13.1585862,14.3905325 13.4827586,14.3905325 L20.5172414,14.3905325 C20.8408276,14.3905325 21.1034483,14.6585562 21.1034483,14.9901381 C21.1034483,15.3211203 20.8408276,15.5897436 20.5172414,15.5897436" id="Fill-13" sketch:type="MSShapeGroup"></path>
            <path d="M14.0689655,14.9901381 L15.2413793,14.9901381 L15.2413793,28.1814596 L14.0689655,28.1814596 L14.0689655,14.9901381 L14.0689655,14.9901381 Z" id="Fill-14" sketch:type="MSShapeGroup"></path>
            <path d="M16.4137931,14.9901381 L17.5862069,14.9901381 L17.5862069,28.1814596 L16.4137931,28.1814596 L16.4137931,14.9901381 L16.4137931,14.9901381 Z" id="Fill-15" sketch:type="MSShapeGroup"></path>
            <path d="M18.7586207,14.9901381 L19.9310345,14.9901381 L19.9310345,28.1814596 L18.7586207,28.1814596 L18.7586207,14.9901381 L18.7586207,14.9901381 Z" id="Fill-16" sketch:type="MSShapeGroup"></path>
            <path d="M33.4137931,13.1913215 L0.586206897,13.1913215 C0.331206897,13.1913215 0.105517241,13.0228323 0.028137931,12.7745957 C-0.0498275862,12.526359 0.0381034483,12.2553373 0.24562069,12.1036371 L16.6594138,0.111526627 C16.8628276,-0.0371755424 17.1365862,-0.0371755424 17.3405862,0.111526627 L33.7543793,12.1036371 C33.9613103,12.2553373 34.0498276,12.526359 33.9718621,12.7745957 C33.8938966,13.0228323 33.6687931,13.1913215 33.4137931,13.1913215 L33.4137931,13.1913215 L33.4137931,13.1913215 Z M2.41517241,11.9921105 L31.5848276,11.9921105 L17,1.33652071 L2.41517241,11.9921105 L2.41517241,11.9921105 L2.41517241,11.9921105 Z" id="Fill-17" sketch:type="MSShapeGroup"></path>
        </g>
    </g>
</svg>