<?xml version="1.0" encoding="UTF-8" standalone="no"?>
<svg width="10px" height="25px" viewBox="0 0 10 25" version="1.1" xmlns="http://www.w3.org/2000/svg" xmlns:xlink="http://www.w3.org/1999/xlink" xmlns:sketch="http://www.bohemiancoding.com/sketch/ns">
    <!-- Generator: Sketch 3.4 (15588) - http://www.bohemiancoding.com/sketch -->
    <title>Funds</title>
    <desc>Created with Sketch.</desc>
    <defs></defs>
    <g id="Page-1" stroke="none" stroke-width="1" fill="none" fill-rule="evenodd" sketch:type="MSPage">
        <g id="Funds" sketch:type="MSLayerGroup" fill="#FFFFFF">
            <path d="M4.93150685,24.0410959 C4.54191781,24.0410959 4.22700587,23.7243191 4.22700587,23.3340048 L4.22700587,0.707091056 C4.22700587,0.316776793 4.54191781,0 4.93150685,0 C5.32109589,0 5.63600783,0.316776793 5.63600783,0.707091056 L5.63600783,23.3340048 C5.63600783,23.7243191 5.32109589,24.0410959 4.93150685,24.0410959" id="Fill-1" sketch:type="MSShapeGroup"></path>
            <path d="M4.93150685,21.2127317 C2.21283757,21.2127317 0,18.9924658 0,16.2630943 C0,15.87278 0.314911937,15.5560032 0.704500978,15.5560032 C1.09409002,15.5560032 1.40900196,15.87278 1.40900196,16.2630943 C1.40900196,18.2125443 2.98919765,19.7985496 4.93150685,19.7985496 C6.87381605,19.7985496 8.45401174,18.2125443 8.45401174,16.2630943 C8.45401174,14.3136442 6.87381605,12.727639 4.93150685,12.727639 C2.21283757,12.727639 0,10.5073731 0,7.77800161 C0,5.04863014 2.21283757,2.82836422 4.93150685,2.82836422 C7.65017613,2.82836422 9.8630137,5.04863014 9.8630137,7.77800161 C9.8630137,8.16831587 9.54810176,8.48509267 9.15851272,8.48509267 C8.76892368,8.48509267 8.45401174,8.16831587 8.45401174,7.77800161 C8.45401174,5.82855157 6.87381605,4.24254633 4.93150685,4.24254633 C2.98919765,4.24254633 1.40900196,5.82855157 1.40900196,7.77800161 C1.40900196,9.72745165 2.98919765,11.3134569 4.93150685,11.3134569 C7.65017613,11.3134569 9.8630137,13.5337228 9.8630137,16.2630943 C9.8630137,18.9924658 7.65017613,21.2127317 4.93150685,21.2127317" id="Fill-2" sketch:type="MSShapeGroup"></path>
        </g>
    </g>
</svg>