<?xml version="1.0" encoding="UTF-8" standalone="no"?>
<svg width="25px" height="23px" viewBox="0 0 25 23" version="1.1" xmlns="http://www.w3.org/2000/svg" xmlns:xlink="http://www.w3.org/1999/xlink">
    <defs></defs>
    <g id="Page-1" stroke="none" stroke-width="1" fill="none" fill-rule="evenodd">
        <g id="identity-icon" transform="translate(1.000000, 1.000000)" stroke="#FFFFFF" stroke-width="0.5" fill="#FFFFFF">
            <path d="M1.1569777,21.2169276 C2.0894288,20.1755871 4.3626003,19.32182 7.1492209,18.2751957 C7.7309295,18.0568004 8.3405431,17.8278376 8.973339,17.5843444 C9.1407681,17.5200587 9.2519582,17.3558219 9.2519582,17.1722114 L9.2519582,13.6497065 C9.2519582,13.51409 9.1909968,13.3859589 9.0866756,13.3022994 C9.0746551,13.2930528 7.9266928,12.352544 7.9266928,10.3698141 C7.9266928,10.1540607 7.775148,9.9744129 7.575521,9.9369863 C7.4574621,9.805773 7.2586937,9.275636 7.3097811,8.7181996 C7.3329636,8.4619374 7.417966,8.1272994 7.6892869,7.9881605 C7.8348214,7.9133072 7.9266928,7.7609589 7.9266928,7.5940802 C7.9266928,7.4597847 7.8841915,7.308317 7.7601223,6.8895793 C7.4888014,5.9706458 6.8525709,3.8175147 7.5021098,2.9192759 C7.7146159,2.6255871 8.0675049,2.4824853 8.5800954,2.4824853 C8.7771465,2.4824853 8.9484393,2.3451076 8.9965215,2.1491683 C9.1725367,1.4257339 10.7094496,0.8806262 12.5713466,0.8806262 C14.5079428,0.8806262 16.5887855,1.5001468 16.8197517,2.6837084 C17.0687488,3.9623777 16.3651174,5.7817515 15.9868995,6.7592466 C15.7907069,7.2656067 15.728887,7.4338063 15.728887,7.5940802 C15.728887,7.7609589 15.8207583,7.9133072 15.9662928,7.9881605 C16.2376137,8.1272994 16.3226162,8.4619374 16.3457987,8.7181996 C16.396886,9.275636 16.1981177,9.805773 16.0800587,9.9369863 C15.8804318,9.9744129 15.728887,10.1540607 15.728887,10.3698141 C15.728887,12.3560665 14.5530198,13.5066047 14.5422872,13.5171722 C14.4538503,13.6003914 14.4036216,13.717955 14.4036216,13.8412427 L14.4036216,17.1722114 C14.4036216,17.3558219 14.5148116,17.5200587 14.6822407,17.5843444 C15.3146074,17.8278376 15.922933,18.0563601 16.5042123,18.2743151 C19.4466707,19.379501 21.8142894,20.2702544 22.6385555,21.3934932 C22.999172,21.3908513 23.3585005,21.4384051 23.6997982,21.5405577 C23.6603021,21.4524951 23.6220939,21.3644325 23.5791634,21.2763699 C22.8124242,19.705773 20.2902556,18.7582192 16.7995744,17.447407 C16.3063026,17.2624755 15.7928535,17.0696184 15.2622321,16.8666341 L15.2622321,14.0195695 C15.610828,13.6276908 16.4943383,12.4639432 16.5806287,10.6560176 C16.8236155,10.4658023 17.0176614,10.1069472 17.1297101,9.6199609 C17.3078718,8.8463307 17.2134247,7.9265166 16.6583329,7.4148728 C16.6956825,7.3144814 16.7416182,7.1955969 16.784978,7.0837573 C17.1958231,6.0217221 17.9604159,4.0447162 17.6616194,2.5111057 C17.3233268,0.776272 14.861261,0 12.5713466,0 C10.8979146,0 8.8612904,0.4301859 8.2795817,1.6155088 C7.6360531,1.676272 7.1432106,1.9373777 6.8126455,2.394863 C5.9055235,3.6493151 6.5778156,5.9235323 6.938432,7.1454012 C6.963761,7.2312622 6.9908072,7.322407 7.0135604,7.4003425 C6.4438723,7.9084638 6.3459907,8.8388454 6.5258696,9.6199609 C6.6379183,10.1069472 6.8319643,10.4662427 7.0749511,10.6560176 C7.1603828,12.4295988 8.0228571,13.4749022 8.3933476,13.8452055 L8.3933476,16.8666341 C7.8618677,17.0700587 7.3479892,17.2629159 6.8538589,17.4482877 C3.3636069,18.7590998 0.8414384,19.705773 0.0764163,21.2763699 C0.0493701,21.3318493 0.0257583,21.3873288 0,21.4432485 C0.3704905,21.3358121 0.7585824,21.2622798 1.1569777,21.2169276" id="Imported-Layers"></path>
        </g>
    </g>
</svg>