<?xml version="1.0" encoding="UTF-8" standalone="no"?>
<svg width="38px" height="50px" viewBox="0 0 38 50" version="1.1" xmlns="http://www.w3.org/2000/svg" xmlns:xlink="http://www.w3.org/1999/xlink" xmlns:sketch="http://www.bohemiancoding.com/sketch/ns">
    <!-- Generator: Sketch 3.4 (15588) - http://www.bohemiancoding.com/sketch -->
    <title>Page 1</title>
    <desc>Created with Sketch.</desc>
    <defs>
        <path id="path-1" d="M0,0 L34,0 L34,46 L0,46 L0,0 Z"></path>
    </defs>
    <g id="Page-1" stroke="none" stroke-width="1" fill="none" fill-rule="evenodd" sketch:type="MSPage">
        <g sketch:type="MSLayerGroup" transform="translate(2.000000, 2.000000)">
            <path d="M34,42 C34,44.208 32.21,46 30,46 L4,46 C1.792,46 0,44.208 0,42 L0,4 C0,1.79 1.792,0 4,0 L30,0 C32.21,0 34,1.79 34,4 L34,42 L34,42 Z" id="Stroke-1" stroke="#FFFFFF" stroke-width="3" sketch:type="MSShapeGroup"></path>
            <path d="M17,39.2916667 C15.9563889,39.2916667 15.1111111,40.149375 15.1111111,41.2083333 C15.1111111,42.2663333 15.9563889,43.125 17,43.125 C18.0426667,43.125 18.8888889,42.2663333 18.8888889,41.2083333 C18.8888889,40.149375 18.0426667,39.2916667 17,39.2916667" id="Fill-3" fill="#FFFFFF" sketch:type="MSShapeGroup"></path>
            <mask id="mask-2" sketch:name="Clip 6" fill="white">
                <use xlink:href="#path-1"></use>
            </mask>
            <g id="Clip-6"></g>
            <path d="M29.2777778,37.375 L4.72222222,37.375 L4.72222222,6.70833333 L29.2777778,6.70833333 L29.2777778,37.375 Z" id="Stroke-5" stroke="#FFFFFF" stroke-width="2" sketch:type="MSShapeGroup" mask="url(#mask-2)"></path>
            <path d="M17,2.875 C16.4777222,2.875 16.0555556,3.303375 16.0555556,3.83333333 C16.0555556,4.36233333 16.4777222,4.79166667 17,4.79166667 C17.5222778,4.79166667 17.9444444,4.36233333 17.9444444,3.83333333 C17.9444444,3.303375 17.5222778,2.875 17,2.875" id="Fill-7" fill="#FFFFFF" sketch:type="MSShapeGroup" mask="url(#mask-2)"></path>
        </g>
    </g>
</svg>