<?xml version="1.0" encoding="UTF-8" standalone="no"?>
<svg width="30px" height="30px" viewBox="0 0 30 30" version="1.1" xmlns="http://www.w3.org/2000/svg" xmlns:xlink="http://www.w3.org/1999/xlink" xmlns:sketch="http://www.bohemiancoding.com/sketch/ns">
    <!-- Generator: Sketch 3.2.1 (9977) - http://www.bohemiancoding.com/sketch -->
    <title>approved</title>
    <desc>Created with Sketch.</desc>
    <defs></defs>
    <g id="Page-1" stroke="none" stroke-width="1" fill="none" fill-rule="evenodd" sketch:type="MSPage">
        <g id="Desktop" sketch:type="MSArtboardGroup" transform="translate(-299.000000, -232.000000)">
            <g id="Imported-Layers" sketch:type="MSLayerGroup" transform="translate(299.000000, 232.000000)">
                <path d="M15.015,1 C22.734,1 29.014,7.28 29.014,15 C29.014,22.72 22.734,29 15.015,29 C7.295,29 1.015,22.72 1.015,15 C1.015,7.28 7.295,1 15.015,1 L15.015,1 Z M11.898,17.328 L9.771,15.2 C9.488,14.917 9.111,14.761 8.71,14.761 C8.31,14.761 7.933,14.917 7.65,15.2 C7.366,15.483 7.21,15.86 7.21,16.261 C7.21,16.661 7.366,17.038 7.65,17.321 L10.801,20.473 C11.084,20.757 11.461,20.913 11.862,20.913 C12.242,20.913 12.605,20.77 12.886,20.51 L22.342,11.684 C22.947,11.119 22.979,10.168 22.415,9.563 C22.133,9.261 21.733,9.087 21.319,9.087 C20.938,9.087 20.575,9.23 20.295,9.49 L11.898,17.328 L11.898,17.328 Z M15.015,0 C6.743,0 0.015,6.729 0.015,15 C0.015,23.271 6.743,30 15.015,30 C23.286,30 30.015,23.271 30.015,15 C30.015,6.729 23.286,0 15.015,0 L15.015,0 Z M11.874,18.718 L20.978,10.221 C21.074,10.132 21.196,10.087 21.319,10.087 C21.453,10.087 21.586,10.14 21.684,10.245 C21.873,10.448 21.862,10.764 21.66,10.953 L12.203,19.779 C12.107,19.868 11.985,19.913 11.862,19.913 C11.734,19.913 11.606,19.864 11.509,19.766 L8.357,16.614 C8.161,16.419 8.161,16.102 8.357,15.907 C8.454,15.81 8.582,15.761 8.71,15.761 C8.838,15.761 8.966,15.81 9.064,15.907 L11.874,18.718 L11.874,18.718 Z" id="Fill-1" fill="#1CAD41" sketch:type="MSShapeGroup"></path>
                <path d="M21.653,10.977 L12.197,19.803 C12.101,19.893 11.978,19.937 11.856,19.937 C11.728,19.937 11.6,19.889 11.502,19.791 L8.35,16.639 C8.155,16.443 8.155,16.127 8.35,15.932 C8.546,15.736 8.862,15.736 9.057,15.932 L11.868,18.742 L20.971,10.245 C21.173,10.058 21.49,10.068 21.678,10.27 C21.866,10.472 21.855,10.789 21.653,10.977 L21.653,10.977 Z" id="Stroke-2" stroke="#1CAD41" sketch:type="MSShapeGroup"></path>
            </g>
        </g>
    </g>
</svg>