<?xml version="1.0" encoding="UTF-8" standalone="no"?>
<svg width="30px" height="30px" viewBox="0 0 30 30" version="1.1" xmlns="http://www.w3.org/2000/svg" xmlns:xlink="http://www.w3.org/1999/xlink" xmlns:sketch="http://www.bohemiancoding.com/sketch/ns">
    <!-- Generator: Sketch 3.2.1 (9977) - http://www.bohemiancoding.com/sketch -->
    <title>pending</title>
    <desc>Created with Sketch.</desc>
    <defs></defs>
    <g id="Page-1" stroke="none" stroke-width="1" fill="none" fill-rule="evenodd" sketch:type="MSPage">
        <g id="Desktop" sketch:type="MSArtboardGroup" transform="translate(-244.000000, -268.000000)">
            <g id="Imported-Layers" sketch:type="MSLayerGroup" transform="translate(244.000000, 268.000000)">
                <path d="M15.016,1.581 C22.46,1.581 28.516,7.637 28.516,15.081 C28.516,22.525 22.46,28.581 15.016,28.581 C7.572,28.581 1.516,22.525 1.516,15.081 C1.516,7.637 7.572,1.581 15.016,1.581 M15.016,0.581 C7.021,0.581 0.516,7.086 0.516,15.081 C0.516,23.076 7.021,29.581 15.016,29.581 C23.012,29.581 29.516,23.076 29.516,15.081 C29.516,7.086 23.012,0.581 15.016,0.581" id="Fill-1" fill="#FFB445" sketch:type="MSShapeGroup"></path>
                <path d="M15.349,16.42 C15.349,16.603 15.2,16.752 15.016,16.752 C14.833,16.752 14.684,16.603 14.684,16.42 L14.684,13.743 C14.684,13.559 14.833,13.41 15.016,13.41 C15.2,13.41 15.349,13.559 15.349,13.743 L15.349,16.42 L15.349,16.42 Z M20.349,16.42 C20.349,16.603 20.2,16.752 20.016,16.752 C19.833,16.752 19.684,16.603 19.684,16.42 L19.684,13.743 C19.684,13.559 19.833,13.41 20.016,13.41 C20.2,13.41 20.349,13.559 20.349,13.743 L20.349,16.42 L20.349,16.42 Z M10.349,16.42 C10.349,16.603 10.2,16.752 10.016,16.752 C9.833,16.752 9.684,16.603 9.684,16.42 L9.684,13.743 C9.684,13.559 9.833,13.41 10.016,13.41 C10.2,13.41 10.349,13.559 10.349,13.743 L10.349,16.42 L10.349,16.42 Z" id="Stroke-2" stroke="#FFB445" sketch:type="MSShapeGroup"></path>
            </g>
        </g>
    </g>
</svg>