<?xml version="1.0" encoding="UTF-8" standalone="no"?>
<svg width="25px" height="18px" viewBox="0 0 25 18" version="1.1" xmlns="http://www.w3.org/2000/svg" xmlns:xlink="http://www.w3.org/1999/xlink" xmlns:sketch="http://www.bohemiancoding.com/sketch/ns">
    <!-- Generator: Sketch 3.4 (15588) - http://www.bohemiancoding.com/sketch -->
    <title>Email</title>
    <desc>Created with Sketch.</desc>
    <defs></defs>
    <g id="Page-1" stroke="none" stroke-width="1" fill="none" fill-rule="evenodd" sketch:type="MSPage">
        <g id="Email" sketch:type="MSLayerGroup" fill="#FFFFFF">
            <path d="M21.5753425,17.260274 L3.08219178,17.260274 C1.44,17.260274 0,15.820274 0,14.1780822 L0,3.08219178 C0,1.44 1.44,0 3.08219178,0 L21.5753425,0 C23.2175342,0 24.6575342,1.44 24.6575342,3.08219178 L24.6575342,14.1780822 C24.6575342,15.820274 23.2175342,17.260274 21.5753425,17.260274 L21.5753425,17.260274 L21.5753425,17.260274 Z M3.08219178,1.23287671 C2.13164384,1.23287671 1.23287671,2.13164384 1.23287671,3.08219178 L1.23287671,14.1780822 C1.23287671,15.1286301 2.13164384,16.0273973 3.08219178,16.0273973 L21.5753425,16.0273973 C22.5258904,16.0273973 23.4246575,15.1286301 23.4246575,14.1780822 L23.4246575,3.08219178 C23.4246575,2.13164384 22.5258904,1.23287671 21.5753425,1.23287671 L3.08219178,1.23287671 L3.08219178,1.23287671 L3.08219178,1.23287671 Z" id="Fill-1" sketch:type="MSShapeGroup"></path>
            <path d="M12.3287671,10.4794521 C12.1943836,10.4794521 12.06,10.4356849 11.9478082,10.3475342 L3.31767123,3.56671233 C3.05013699,3.35650685 3.00390411,2.96876712 3.21410959,2.70123288 C3.42431507,2.43369863 3.81205479,2.38746575 4.07958904,2.59767123 L12.3287671,9.07890411 L20.5779452,2.59767123 C20.8460959,2.38684932 21.2332192,2.43308219 21.4434247,2.70123288 C21.6536301,2.96876712 21.6073973,3.35650685 21.339863,3.56671233 L12.709726,10.3475342 C12.5981507,10.4356849 12.4631507,10.4794521 12.3287671,10.4794521" id="Fill-2" sketch:type="MSShapeGroup"></path>
            <path d="M20.9589041,13.5616438 C20.8232877,13.5616438 20.6870548,13.5172603 20.5730137,13.4260274 L14.3636301,8.44150685 C14.0985616,8.22821918 14.0560274,7.84047945 14.2693151,7.57479452 C14.4819863,7.30910959 14.8703425,7.26719178 15.135411,7.47986301 L21.3447945,12.4643836 C21.6104795,12.6776712 21.6530137,13.065411 21.439726,13.3310959 C21.3182877,13.4827397 21.1389041,13.5616438 20.9589041,13.5616438" id="Fill-3" sketch:type="MSShapeGroup"></path>
            <path d="M3.69863014,13.5616438 C3.51863014,13.5616438 3.33986301,13.4827397 3.21780822,13.3310959 C3.00513699,13.065411 3.04705479,12.6776712 3.31273973,12.4643836 L9.52150685,7.47986301 C9.78657534,7.26657534 10.1749315,7.30910959 10.3882192,7.57479452 C10.6015068,7.84047945 10.5589726,8.22821918 10.2932877,8.44150685 L4.08452055,13.4260274 C3.97109589,13.5172603 3.83424658,13.5616438 3.69863014,13.5616438" id="Fill-4" sketch:type="MSShapeGroup"></path>
        </g>
    </g>
</svg>