<?xml version="1.0" encoding="UTF-8" standalone="no"?>
<svg width="29px" height="21px" viewBox="0 0 29 21" version="1.1" xmlns="http://www.w3.org/2000/svg" xmlns:xlink="http://www.w3.org/1999/xlink" xmlns:sketch="http://www.bohemiancoding.com/sketch/ns">
    <!-- Generator: Sketch 3.4 (15588) - http://www.bohemiancoding.com/sketch -->
    <title>id-icon</title>
    <desc>Created with Sketch.</desc>
    <defs></defs>
    <g id="Page-1" stroke="none" stroke-width="1" fill="none" fill-rule="evenodd" sketch:type="MSPage">
        <g id="id-icon" sketch:type="MSLayerGroup" transform="translate(1.000000, 1.000000)" fill="#FFFFFF">
            <g id="Page-1" sketch:type="MSShapeGroup">
                <g id="id-icon">
                    <path d="M26.504211,0.004211 L0.504211,0.004211 C0.228211,0.004211 0.004211,0.228211 0.004211,0.504211 L0.004211,18.504211 C0.004211,18.780211 0.228211,19.004211 0.504211,19.004211 L26.504211,19.004211 C26.780211,19.004211 27.004211,18.780211 27.004211,18.504211 L27.004211,0.504211 C27.004211,0.228211 26.780211,0.004211 26.504211,0.004211 L26.504211,0.004211 L26.504211,0.004211 L26.504211,0.004211 Z M1.004211,1.004211 L26.004211,1.004211 L26.004211,18.004211 L1.004211,18.004211 L1.004211,1.004211 L1.004211,1.004211 L1.004211,1.004211 Z" id="Fill-1" stroke="#FFFFFF"></path>
                    <path d="M21.004211,6.504211 L15.504211,6.504211 C15.228211,6.504211 15.004211,6.280211 15.004211,6.004211 C15.004211,5.728211 15.228211,5.504211 15.504211,5.504211 L21.004211,5.504211 C21.280211,5.504211 21.504211,5.728211 21.504211,6.004211 C21.504211,6.280211 21.280211,6.504211 21.004211,6.504211" id="Fill-2"></path>
                    <path d="M23.004211,9.504211 L15.504211,9.504211 C15.228211,9.504211 15.004211,9.280211 15.004211,9.004211 C15.004211,8.728211 15.228211,8.504211 15.504211,8.504211 L23.004211,8.504211 C23.280211,8.504211 23.504211,8.728211 23.504211,9.004211 C23.504211,9.280211 23.280211,9.504211 23.004211,9.504211" id="Fill-3"></path>
                    <path d="M22.004211,12.504211 L15.504211,12.504211 C15.228211,12.504211 15.004211,12.280211 15.004211,12.004211 C15.004211,11.728211 15.228211,11.504211 15.504211,11.504211 L22.004211,11.504211 C22.280211,11.504211 22.504211,11.728211 22.504211,12.004211 C22.504211,12.280211 22.280211,12.504211 22.004211,12.504211" id="Fill-4"></path>
                    <path d="M8.699711,10.025711 C7.381211,10.025711 6.308211,8.953211 6.308211,7.634711 C6.308211,6.316211 7.381211,5.243211 8.699711,5.243211 C10.018211,5.243211 11.091211,6.316211 11.091211,7.634711 C11.091211,8.953211 10.018211,10.025711 8.699711,10.025711 L8.699711,10.025711 L8.699711,10.025711 L8.699711,10.025711 Z M8.699711,6.243211 C7.932711,6.243211 7.308211,6.867711 7.308211,7.634711 C7.308211,8.401711 7.932711,9.025711 8.699711,9.025711 C9.466711,9.025711 10.091211,8.401711 10.091211,7.634711 C10.091211,6.867711 9.466711,6.243211 8.699711,6.243211 L8.699711,6.243211 L8.699711,6.243211 L8.699711,6.243211 Z" id="Fill-5"></path>
                    <path d="M11.861711,14.504211 C11.858211,14.504211 11.855211,14.503711 11.851711,14.504211 L5.547711,14.504211 C5.271711,14.504211 5.047711,14.280211 5.047711,14.004211 C5.047711,11.073211 6.549211,9.025711 8.699711,9.025711 C10.824711,9.025711 12.316211,11.025211 12.351211,13.901211 C12.358211,13.934211 12.361711,13.968711 12.361711,14.004211 C12.361711,14.280211 12.137711,14.504211 11.861711,14.504211 L11.861711,14.504211 L11.861711,14.504211 L11.861711,14.504211 Z M6.064711,13.504211 L11.334711,13.504211 C11.190711,11.432211 10.147711,10.025711 8.699711,10.025711 C7.252211,10.025711 6.209211,11.432211 6.064711,13.504211 L6.064711,13.504211 L6.064711,13.504211 L6.064711,13.504211 Z" id="Fill-6"></path>
                </g>
            </g>
        </g>
    </g>
</svg>