<?xml version="1.0" encoding="UTF-8" standalone="no"?>
<svg width="30px" height="30px" viewBox="0 0 30 30" version="1.1" xmlns="http://www.w3.org/2000/svg" xmlns:xlink="http://www.w3.org/1999/xlink" xmlns:sketch="http://www.bohemiancoding.com/sketch/ns">
    <!-- Generator: Sketch 3.2.2 (9983) - http://www.bohemiancoding.com/sketch -->
    <title>wallet-icon</title>
    <desc>Created with Sketch.</desc>
    <defs></defs>
    <g id="Page-1" stroke="none" stroke-width="1" fill="none" fill-rule="evenodd" sketch:type="MSPage">
        <g id="Add-Funds" sketch:type="MSArtboardGroup" transform="translate(-808.000000, -459.000000)">
            <g id="#33" sketch:type="MSLayerGroup" transform="translate(-383.000000, -107.000000)"></g>
            <g id="SignIn-card" sketch:type="MSLayerGroup" transform="translate(445.000000, 269.000000)">
                <g id="v" transform="translate(255.000000, 147.000000)" sketch:type="MSShapeGroup">
                    <rect id="Rectangle-4" stroke-opacity="0.499603714" stroke="#979797" x="0" y="0" width="245" height="298"></rect>
                    <g id="Imported-Layers" transform="translate(108.000000, 43.000000)" fill="#081F37">
                        <path d="M9.5,10 L0.5,10 C0.224,10 0,9.7765 0,9.5 L0,0.5 C0,0.2235 0.224,0 0.5,0 L9.5,0 C9.776,0 10,0.2235 10,0.5 L10,9.5 C10,9.7765 9.776,10 9.5,10 L9.5,10 Z M1,9 L9,9 L9,1 L1,1 L1,9 Z" id="Fill-1"></path>
                        <path d="M7.5,8 L2.5,8 C2.224,8 2,7.7765 2,7.5 L2,2.5 C2,2.2235 2.224,2 2.5,2 L7.5,2 C7.776,2 8,2.2235 8,2.5 L8,7.5 C8,7.7765 7.776,8 7.5,8 L7.5,8 Z M3,7 L7,7 L7,3 L3,3 L3,7 Z" id="Fill-2"></path>
                        <path d="M9.5,30 L0.5,30 C0.224,30 0,29.7765 0,29.5 L0,20.5 C0,20.2235 0.224,20 0.5,20 L9.5,20 C9.776,20 10,20.2235 10,20.5 L10,29.5 C10,29.7765 9.776,30 9.5,30 L9.5,30 Z M1,29 L9,29 L9,21 L1,21 L1,29 Z" id="Fill-3"></path>
                        <path d="M7.5,28 L2.5,28 C2.224,28 2,27.7765 2,27.5 L2,22.5 C2,22.2235 2.224,22 2.5,22 L7.5,22 C7.776,22 8,22.2235 8,22.5 L8,27.5 C8,27.7765 7.776,28 7.5,28 L7.5,28 Z M3,27 L7,27 L7,23 L3,23 L3,27 Z" id="Fill-4"></path>
                        <path d="M24.5,25 L20.5,25 C20.224,25 20,24.7765 20,24.5 L20,20.5 C20,20.2235 20.224,20 20.5,20 L24.5,20 C24.776,20 25,20.2235 25,20.5 L25,24.5 C25,24.7765 24.776,25 24.5,25 L24.5,25 Z M21,24 L24,24 L24,21 L21,21 L21,24 Z" id="Fill-5"></path>
                        <path d="M29.5,10 L20.5,10 C20.224,10 20,9.7765 20,9.5 L20,0.5 C20,0.2235 20.224,0 20.5,0 L29.5,0 C29.776,0 30,0.2235 30,0.5 L30,9.5 C30,9.7765 29.776,10 29.5,10 L29.5,10 Z M21,9 L29,9 L29,1 L21,1 L21,9 Z" id="Fill-6"></path>
                        <path d="M26.5,7 L23.5,7 C23.224,7 23,6.7765 23,6.5 L23,3.5 C23,3.2235 23.224,3 23.5,3 L26.5,3 C26.776,3 27,3.2235 27,3.5 L27,6.5 C27,6.7765 26.776,7 26.5,7 L26.5,7 Z M24,6 L26,6 L26,4 L24,4 L24,6 Z" id="Fill-7"></path>
                        <path d="M16.2605,12 L11.8475,12 C11.5715,12 11.3475,11.7765 11.3475,11.5 C11.3475,11.2235 11.5715,11 11.8475,11 L16.2605,11 C16.537,11 16.7605,11.2235 16.7605,11.5 C16.7605,11.7765 16.537,12 16.2605,12" id="Fill-8"></path>
                        <path d="M16.2605,19 L11.5,19 C11.224,19 11,18.7765 11,18.5 L11,14.3695 C11,14.0935 11.224,13.8695 11.5,13.8695 C11.776,13.8695 12,14.0935 12,14.3695 L12,18 L16.2605,18 C16.537,18 16.7605,18.2235 16.7605,18.5 C16.7605,18.7765 16.537,19 16.2605,19" id="Fill-9"></path>
                        <path d="M9.5,14.8695 C9.224,14.8695 9,14.646 9,14.3695 L9,12 L0.5,12 C0.224,12 0,11.7765 0,11.5 C0,11.2235 0.224,11 0.5,11 L9.5,11 C9.776,11 10,11.2235 10,11.5 L10,14.3695 C10,14.646 9.776,14.8695 9.5,14.8695" id="Fill-10"></path>
                        <path d="M27.6085,18.6525 C27.332,18.6525 27.1085,18.4285 27.1085,18.1525 L27.1085,11.5 C27.1085,11.2235 27.332,11 27.6085,11 L29.5,11 C29.776,11 30,11.2235 30,11.5 C30,11.7765 29.776,12 29.5,12 L28.1085,12 L28.1085,18.1525 C28.1085,18.4285 27.8845,18.6525 27.6085,18.6525" id="Fill-11"></path>
                        <path d="M25.5,18.6525 C25.224,18.6525 25,18.4285 25,18.1525 L25,14.3695 C25,14.0935 25.224,13.8695 25.5,13.8695 C25.776,13.8695 26,14.0935 26,14.3695 L26,18.1525 C26,18.4285 25.776,18.6525 25.5,18.6525" id="Fill-12"></path>
                        <path d="M18.5,14.8695 C18.224,14.8695 18,14.646 18,14.3695 L18,11.5 C18,11.2235 18.224,11 18.5,11 L25.087,11 C25.363,11 25.587,11.2235 25.587,11.5 C25.587,11.7765 25.363,12 25.087,12 L19,12 L19,14.3695 C19,14.646 18.776,14.8695 18.5,14.8695" id="Fill-13"></path>
                        <path d="M18.5,9 L15.6305,9 C15.3545,9 15.1305,8.7765 15.1305,8.5 L15.1305,5.5435 C15.1305,5.267 15.3545,5.0435 15.6305,5.0435 C15.9065,5.0435 16.1305,5.267 16.1305,5.5435 L16.1305,8 L18,8 L18,3.022 C18,2.7455 18.224,2.522 18.5,2.522 C18.776,2.522 19,2.7455 19,3.022 L19,8.5 C19,8.7765 18.776,9 18.5,9" id="Fill-14"></path>
                        <path d="M11.5,9.826 C11.224,9.826 11,9.6025 11,9.326 L11,5.5435 C11,5.267 11.224,5.0435 11.5,5.0435 C11.776,5.0435 12,5.267 12,5.5435 L12,9.326 C12,9.6025 11.776,9.826 11.5,9.826" id="Fill-15"></path>
                        <path d="M18.1525,1 L14.3695,1 C14.0935,1 13.8695,0.7765 13.8695,0.5 C13.8695,0.2235 14.0935,0 14.3695,0 L18.1525,0 C18.4285,0 18.6525,0.2235 18.6525,0.5 C18.6525,0.7765 18.4285,1 18.1525,1" id="Fill-16"></path>
                        <path d="M14.3695,4 L11.5,4 C11.224,4 11,3.7765 11,3.5 L11,0.5 C11,0.2235 11.224,0 11.5,0 C11.776,0 12,0.2235 12,0.5 L12,3 L14.3695,3 C14.6455,3 14.8695,3.2235 14.8695,3.5 C14.8695,3.7765 14.6455,4 14.3695,4" id="Fill-17"></path>
                        <path d="M6.804,16.1305 L3.0215,16.1305 C2.7455,16.1305 2.5215,15.9065 2.5215,15.6305 C2.5215,15.354 2.7455,15.1305 3.0215,15.1305 L6.804,15.1305 C7.08,15.1305 7.304,15.354 7.304,15.6305 C7.304,15.9065 7.08,16.1305 6.804,16.1305" id="Fill-18"></path>
                        <path d="M3.0215,19 L0.5,19 C0.224,19 0,18.7765 0,18.5 L0,14.3695 C0,14.0935 0.224,13.8695 0.5,13.8695 C0.776,13.8695 1,14.0935 1,14.3695 L1,18 L3.0215,18 C3.298,18 3.5215,18.2235 3.5215,18.5 C3.5215,18.7765 3.298,19 3.0215,19" id="Fill-19"></path>
                        <path d="M26.5,30 L15.6305,30 C15.3545,30 15.1305,29.7765 15.1305,29.5 C15.1305,29.2235 15.3545,29 15.6305,29 L26,29 L26,20.5 C26,20.2235 26.224,20 26.5,20 L29.5,20 C29.776,20 30,20.2235 30,20.5 L30,24.4565 C30,24.733 29.776,24.9565 29.5,24.9565 C29.224,24.9565 29,24.733 29,24.4565 L29,21 L27,21 L27,29.5 C27,29.7765 26.776,30 26.5,30" id="Fill-20"></path>
                        <path d="M15.6305,28 L11.5,28 C11.224,28 11,27.7765 11,27.5 L11,21.9345 C11,21.658 11.224,21.4345 11.5,21.4345 C11.776,21.4345 12,21.658 12,21.9345 L12,27 L15.6305,27 C15.9065,27 16.1305,27.2235 16.1305,27.5 C16.1305,27.7765 15.9065,28 15.6305,28" id="Fill-21"></path>
                        <path d="M24.4565,28 L18.5,28 C18.224,28 18,27.7765 18,27.5 L18,23.826 C18,23.55 18.224,23.326 18.5,23.326 C18.776,23.326 19,23.55 19,23.826 L19,27 L24.4565,27 C24.7325,27 24.9565,27.2235 24.9565,27.5 C24.9565,27.7765 24.7325,28 24.4565,28" id="Fill-22"></path>
                        <path d="M15.5,24.9565 C15.224,24.9565 15,24.733 15,24.4565 L15,20.5 C15,20.2235 15.224,20 15.5,20 L18.1525,20 C18.4285,20 18.6525,20.2235 18.6525,20.5 C18.6525,20.7765 18.4285,21 18.1525,21 L16,21 L16,24.4565 C16,24.733 15.776,24.9565 15.5,24.9565" id="Fill-23"></path>
                        <path d="M9.326,19 L6.804,19 C6.528,19 6.304,18.7765 6.304,18.5 C6.304,18.2235 6.528,18 6.804,18 L9.326,18 C9.602,18 9.826,18.2235 9.826,18.5 C9.826,18.7765 9.602,19 9.326,19" id="Fill-24"></path>
                        <path d="M16.2605,15 L13.739,15 C13.463,15 13.2395,14.7765 13.2395,14.5 C13.2395,14.2235 13.463,14 13.739,14 L16.2605,14 C16.537,14 16.7605,14.2235 16.7605,14.5 C16.7605,14.7765 16.537,15 16.2605,15" id="Fill-25"></path>
                        <path d="M22.565,19 L18.7825,19 C18.5065,19 18.2825,18.7765 18.2825,18.5 C18.2825,18.2235 18.5065,18 18.7825,18 L22.565,18 C22.8415,18 23.065,18.2235 23.065,18.5 C23.065,18.7765 22.8415,19 22.565,19" id="Fill-26"></path>
                        <path d="M20.5,18.6525 C20.224,18.6525 20,18.4285 20,18.1525 L20,15.6305 C20,15.354 20.224,15.1305 20.5,15.1305 C20.776,15.1305 21,15.354 21,15.6305 L21,18.1525 C21,18.4285 20.776,18.6525 20.5,18.6525" id="Fill-27"></path>
                    </g>
                </g>
            </g>
        </g>
    </g>
</svg>