<?xml version="1.0" ?><svg height="182px" version="1.1" viewBox="0 0 182 182" width="182px" xmlns="http://www.w3.org/2000/svg" xmlns:sketch="http://www.bohemiancoding.com/sketch/ns" xmlns:xlink="http://www.w3.org/1999/xlink"><title/><defs/><g fill="none" fill-rule="evenodd" id="Page-1" stroke="none" stroke-width="1"><g id="Greece" transform="translate(1.000000, 1.000000)"><path d="M90,80 L179.450712,80 L179.450712,80 C179.813667,83.2833385 180,86.619909 180,90 C180,93.380091 179.813667,96.7166615 179.450712,100 L179.450712,100 L0.549287698,100 C0.186333089,96.7166615 0,93.380091 0,90 L90,90 L90,80 Z M90,40 L164.844511,40 L164.844511,40 C168.974656,46.1701163 172.362066,52.8794197 174.878829,60 L174.878829,60 L90,60 L90,40 Z M90,0 C111.432968,0 131.116084,7.49200111 146.573345,20 L146.573345,20 L90,20 L90,0 Z M164.84451,140.000001 C168.974656,133.829885 172.362065,127.120581 174.878829,120 L174.878833,120 L5.12117078,120 C7.63793466,127.120581 11.0253444,133.829885 15.1554897,140.000001 L164.844517,140 L164.84451,140.000001 Z M146.573345,160 C131.116084,172.507999 111.432968,180 90,180 C68.5670321,180 48.8839158,172.507999 33.4266546,160 L146.573345,160 L146.573345,160 Z M146.573345,160" fill="#4186CD" id="Oval-1-copy-4"/><path d="M90,40 L164.844511,40 L164.844511,40 C159.788834,32.4472114 153.620242,25.7023413 146.573345,20 L146.573345,20 L90,20 L90,40 Z M90,80 L179.450712,80 L179.450712,80 C178.684129,73.0653756 177.129668,66.3682097 174.878829,60 L174.878829,60 L90,60 L90,80 Z M179.450712,100 C178.684129,106.934625 177.129668,113.631791 174.878829,120 L174.878833,120 L5.12117078,120 C2.87033179,113.631791 1.31587144,106.934625 0.549287698,100 L179.450712,100 L179.450712,100 Z M146.573345,160 C153.620242,154.297659 159.788834,147.552789 164.844511,140 L164.844511,140 L15.155489,140 C20.2111656,147.552789 26.3797576,154.297659 33.4266546,160 L146.573345,160 L146.573345,160 Z M146.573345,160" fill="#FFFFFF" id="Oval-1-copy-7"/><path d="M5.12117063,60 C1.8046264,69.3833676 0,79.4809371 0,90 C0,93.380091 0.186333089,96.7166615 0.549287698,100 L90,100 L90,0 C79.480937,0 69.3833673,1.80462645 59.9999996,5.12117078 L60,5.12116698 L60,40 L90,40 L90,60 L60,60 L60,100 L40,100 L40,60 L5.12117067,60 Z M15.1554904,39.9999979 C21.7279435,30.1812636 30.1812655,21.7279418 40,15.155489 L40,40 L15.1554915,40 Z M15.1554904,39.9999979" fill="#4086CD" id="Oval-38-copy-3"/><path d="M15.155489,40 C11.025344,46.1701161 7.63793452,52.8794194 5.12117078,59.9999996 L90,60 L90,40 L15.155489,40 Z M15.155489,40" fill="#FFFFFF" id="Oval-38-copy-4"/><path d="M59.9999996,5.12117078 C52.8794194,7.63793452 46.1701161,11.025344 40,15.155489 L40,100 L60,100 L60,5.12116698 Z M59.9999996,5.12117078" fill="#FFFFFF" id="Oval-38-copy-5"/></g></g></svg>