<?xml version="1.0" ?><svg height="182px" version="1.1" viewBox="0 0 182 182" width="182px" xmlns="http://www.w3.org/2000/svg" xmlns:sketch="http://www.bohemiancoding.com/sketch/ns" xmlns:xlink="http://www.w3.org/1999/xlink"><title/><defs/><g fill="none" fill-rule="evenodd" id="Page-1" stroke="none" stroke-width="1"><g id="Iceland" transform="translate(1.000000, 1.000000)"><path d="M65,176.482334 C72.9372476,178.772725 81.3253009,180 90,180 C132.83175,180 168.675254,150.079775 177.769836,110 L177.769836,110 L65,110 L65,176.482334 Z M25,152.249689 C13.92158,140.684917 5.89915025,126.169203 2.23016395,110 L25,110 L25,152.249689 Z M65,3.51766623 C72.9372476,1.22727543 81.3253009,0 90,0 C132.83175,0 168.675254,29.9202246 177.769836,70 L177.769836,70 L65,70 L65,3.51766623 Z M25,27.7503108 C13.92158,39.3150833 5.89915025,53.8307974 2.23016395,70 L25,70 L25,27.7503108 Z M25,27.7503108" fill="#4086CD" id="Oval-1-copy-4"/><path d="M64.9999999,3.51766624 C49.5571654,7.97388685 35.8208205,16.4544466 25,27.7503108 L25,152.249689 C35.8208205,163.545553 49.5571654,172.026113 65,176.482334 L65,3.51766623 Z M64.9999999,3.51766624" fill="#FFFFFF" id="Oval-1-copy-5"/><path d="M177.769836,110 C179.229386,103.567772 180,96.8738796 180,90 C180,83.1261203 179.229386,76.4322273 177.769836,70 L2.23016395,70 C0.770614294,76.4322273 0,83.1261203 0,90 C0,96.8738797 0.770614294,103.567773 2.23016395,110 L177.769836,110 Z M177.769836,110" fill="#FFFFFF" id="Oval-1-copy-6"/><path d="M59.9999996,5.12117078 C48.8214053,9.07223656 38.6564375,15.1690819 30,22.916803 L30,157.083197 C38.6564376,164.830918 48.8214054,170.927763 59.9999996,174.878829 L60,5.12116698 Z M59.9999996,5.12117078" fill="#CA4638" id="Oval-1-copy-6"/><path d="M178.755624,105 C179.574018,100.121873 180,95.1106832 180,90 C180,84.8893168 179.574018,79.8781271 178.755624,75 L1.24437643,75 C0.425981881,79.8781271 0,84.8893168 0,90 C0,95.1106832 0.425981881,100.121873 1.24437643,105 L178.755624,105 Z M178.755624,105" fill="#CA4638" id="Oval-1-copy-7"/></g></g></svg>