<?xml version="1.0" ?><svg height="182px" version="1.1" viewBox="0 0 182 182" width="182px" xmlns="http://www.w3.org/2000/svg" xmlns:sketch="http://www.bohemiancoding.com/sketch/ns" xmlns:xlink="http://www.w3.org/1999/xlink"><title/><defs/><g fill="none" fill-rule="evenodd" id="Page-1" stroke="none" stroke-width="1"><g id="Norway" transform="translate(1.000000, 1.000000)"><path d="M60,174.878829 C69.3833676,178.195374 79.4809372,180 90,180 C134.594947,180 171.614453,147.565702 178.755624,105 L178.755624,105 L60,105 L60,174.878829 Z M30,157.083197 C15.1178273,143.763292 4.69435516,125.563962 1.24437643,105 L30,105 L30,157.083197 Z M60,5.12117063 C69.3833676,1.8046264 79.4809371,0 90,0 C134.594947,0 171.614453,32.4342982 178.755624,75 L178.755624,75 L60,75 L60,5.12117063 Z M30,22.916803 C15.1178273,36.2367078 4.69435516,54.4360378 1.24437643,75 L30,75 L30,22.916803 Z M30,22.916803" fill="#CA4638" id="Oval-1-copy-4"/><path d="M59.9999996,5.12117078 C48.8214053,9.07223656 38.6564375,15.1690819 30,22.916803 L30,157.083197 C38.6564376,164.830918 48.8214054,170.927763 59.9999996,174.878829 L60,5.12116698 Z M59.9999996,5.12117078" fill="#FFFFFF" id="Oval-1-copy-5"/><path d="M178.755624,105 C179.574018,100.121873 180,95.1106832 180,90 C180,84.8893168 179.574018,79.8781271 178.755624,75 L1.24437643,75 C0.425981881,79.8781271 0,84.8893168 0,90 C0,95.1106832 0.425981881,100.121873 1.24437643,105 L178.755624,105 Z M178.755624,105" fill="#FFFFFF" id="Oval-1-copy-6"/><path d="M55,7.05909179 C47.8081455,10.0976905 41.0935776,14.0443865 35,18.7554761 L35,161.244524 C41.0935776,165.955614 47.8081455,169.90231 55,172.940908 L55,7.05909179 Z M55,7.05909179" fill="#4086CD" id="Oval-1-copy-6"/><path d="M179.450712,100 C179.813667,96.7166615 180,93.380091 180,90 C180,86.619909 179.813667,83.2833385 179.450712,80 L0.549287698,80 C0.186333089,83.2833385 0,86.619909 0,90 C0,93.380091 0.186333089,96.7166615 0.549287698,100 L179.450712,100 Z M179.450712,100" fill="#4086CD" id="Oval-1-copy-7"/></g></g></svg>