<?xml version="1.0" ?><svg height="182px" version="1.1" viewBox="0 0 182 182" width="182px" xmlns="http://www.w3.org/2000/svg" xmlns:sketch="http://www.bohemiancoding.com/sketch/ns" xmlns:xlink="http://www.w3.org/1999/xlink"><title/><defs/><g fill="none" fill-rule="evenodd" id="Page-1" stroke="none" stroke-width="1"><g id="Sweden" transform="translate(1.000000, 1.000000)"><circle cx="90" cy="90" d="M90,180 C139.70563,180 180,139.70563 180,90 C180,40.2943701 139.70563,0 90,0 C40.2943701,0 0,40.2943701 0,90 C0,139.70563 40.2943701,180 90,180 Z M90,180" fill="#4086CD" id="Oval-1-copy-4" r="90"/><path d="M59.9999996,5.12117078 C48.8214053,9.07223656 38.6564375,15.1690819 30,22.916803 L30,157.083197 C38.6564376,164.830918 48.8214054,170.927763 59.9999996,174.878829 L60,5.12116698 Z M59.9999996,5.12117078" fill="#E5B731" id="Oval-1-copy-5"/><path d="M178.755624,105 C179.574018,100.121873 180,95.1106832 180,90 C180,84.8893168 179.574018,79.8781271 178.755624,75 L1.24437643,75 C0.425981881,79.8781271 0,84.8893168 0,90 C0,95.1106832 0.425981881,100.121873 1.24437643,105 L178.755624,105 Z M178.755624,105" fill="#E5B731" id="Oval-1-copy-6"/></g></g></svg>