<?xml version="1.0" ?><svg height="180px" version="1.1" viewBox="0 0 180 180" width="180px" xmlns="http://www.w3.org/2000/svg" xmlns:sketch="http://www.bohemiancoding.com/sketch/ns" xmlns:xlink="http://www.w3.org/1999/xlink"><title/><defs/><g fill="none" fill-rule="evenodd" id="Page-1" stroke="none" stroke-width="1"><g id="circle_san_marino"><path d="M179.787572,89.8420959 C179.787608,89.8752924 179.787626,89.9084931 179.787626,89.9416981 C179.787626,139.615129 139.577323,179.883396 89.9753957,179.883396 C40.3734681,179.883396 0.163165468,139.615129 0.163165468,89.9416981 C0.163165468,89.9084931 0.163183435,89.8752924 0.163219362,89.8420959 L179.787576,89.8420959 L179.787576,89.8420959 L179.787572,89.8420959 L179.787572,89.8420959 Z" fill="#4BB7C0" id="Oval-15-copy"/><path d="M179.787572,89.8420959 C179.733863,40.2144496 139.544166,0 89.9753957,0 C40.4066253,0 0.21692798,40.2144496 0.163219362,89.8420959 L179.787576,89.8420959 L179.787576,89.8420959 L179.787572,89.8420959 L179.787572,89.8420959 Z" fill="#FFFFFF" id="Oval-15-copy-2"/><g id="San_Marino" transform="translate(45.000000, 31.000000)"><path d="M82.8789055,57.1798457 C82.5154553,57.6376342 80.9285238,58.2276624 80.3406871,57.9099814 C79.8291877,57.6333585 79.8350741,55.9293112 80.7637183,55.095158 C81.3495461,54.5694536 83.5333153,56.355788 82.8789055,57.1798385 L82.8789055,57.1798457 Z" fill="#A48253" id="path74" stroke="#262626" stroke-width="0.1"/><path d="M69.0000034,84 C69.0706769,83.6227186 69.2120273,83.1025859 69.4427315,83.017456 C69.6604399,82.9368392 69.8700256,83.1516009 70,83.3312115 L69,84 L69.0000034,84 Z" fill="#A48253" id="path112" stroke="#262626" stroke-width="0.1"/><path d="M71.861289,72.5565195 C72.4698303,72.0928605 73.1612194,71.8352932 73.4226812,72.1174623 C74.1245936,72.876729 74.1598381,74.3297809 73.6725182,74.7542635 C73.1815162,75.181587 72.0402763,75.147522 71.0554946,73.8714175 C70.8477274,73.6019274 71.2468393,73.0249085 71.8612859,72.5565179 L71.861289,72.5565195 Z" fill="#A48253" id="path132" stroke="#262626" stroke-width="0.1"/><path d="M71.9716703,71.0390225 C72.2051001,71.6463542 70.9317174,73.3404675 70.5070403,72.9392222 C70.2123065,72.6615954 69.8106825,70.5295377 70.0999142,70.1605382 C70.508481,69.6386432 71.7688908,70.5111866 71.9716736,71.0390115 L71.9716703,71.0390225 Z" fill="#D99F31" id="path136" stroke="#262626" stroke-width="0.1"/><path d="M11.3209249,49 C9.58275467,53.6082461 9.06892023,61.3139655 9.66733366,64.87963 C11.5373574,76.024233 20.5914862,86.4861328 28.9481695,88.1796781 C36.1546019,89.6403331 40.4629923,92.9139712 43.4304906,96.2968632 C44.8164231,97.8776768 45.9346894,99.4212166 46.8551027,100.874589 C47.6469168,102.124919 48.3250974,103.489337 48.991075,104.568884 C49.0986902,104.743143 48.1994326,105.118189 48.1043668,104.963351 C47.400226,103.815322 46.7529878,102.367673 45.9419189,101.041742 C45.0189381,99.5334066 43.4335865,97.9903954 42.0548806,96.3487163 C39.121077,92.8548689 35.2140984,90.2291836 28.4429327,88.8661556 C20.436777,87.2543074 11.1190138,76.9399028 9.2587419,65.8500289 C8.65430853,62.2472813 9.09972584,53.8854599 10.6912619,49.4711142 L11.3209656,49.0000073 L11.3209249,49 Z" fill="#A48253" id="path228" stroke="#262626" stroke-width="0.1"/><path d="M62.1545434,89.3387506 C62.5901363,88.8108452 63.8510791,88.8674402 64.7757224,89.7394578 C65.2348566,90.1725323 64.9313043,90.8232819 64.3856177,91.3385045 C63.8360378,91.8569452 63.137777,92.1457876 62.9013074,91.925276 C61.9777281,91.0615869 61.8347134,89.726025 62.1545509,89.3387458 L62.1545434,89.3387506 Z" fill="#A48253" id="path276" stroke="#262626" stroke-width="0.1"/><path d="M63.0485288,91.5215252 C62.8896312,91.326841 63.1435956,90.7299631 63.4816272,90.4031077 C63.7810879,90.1131214 64.2686458,89.9149394 64.3740348,90.0363248 C64.7877121,90.5128364 65.2111677,91.3606515 64.8827788,91.7807658 C64.5531676,92.2024852 63.4066611,91.9605867 63.0485265,91.5215265 L63.0485288,91.5215252 Z" fill="#D99F31" id="path280" stroke="#262626" stroke-width="0.1"/><g id="Group" stroke="#262626" stroke-width="0.1" transform="translate(0.000000, 37.000000)"><path d="M23.9999941,51.4774913 C22.7309192,51.6041324 21.872797,53.2804194 20.5995378,54.335243 C18.2549219,56.276863 14.4978728,56.4707097 12.1023867,55.1740239 C12.002046,55.1193416 11.9511773,54.9977718 12.0645843,54.9739976 C15.0429464,54.3593353 15.4314271,50.6612219 21.6400537,51.0251356 C22.367704,51.0679308 22.6751729,51.2034476 23.4057907,51.2034476 L24,51.477494 L23.9999941,51.4774913 Z" fill="#658D5C" id="path180"/><path d="M19.9999867,46.8982986 C19.4851917,46.9168016 18.9365414,46.9168016 18.4285562,47.0029701 C16.911911,47.2607685 15.4104545,48.9291545 13.1041787,48.9961277 C10.0352956,49.0852906 8.09758009,47.625715 6,45.5426888 C9.05177373,45.0794235 11.4107664,43.3000192 14.559567,44.3005606 C16.1739335,44.8135165 18.0715203,46.8665784 19.5871164,46.5724857 L20,46.8983046 L19.9999867,46.8982986 Z" fill="#658D5C" id="path162"/><path d="M19.8436401,32 L19.890781,32.0208368 C19.9267362,33.9091615 21.505359,36.484536 21.8922816,38.5614553 C22.2260629,40.3501135 21.744867,41.8452641 20.9892124,43.5116287 C20.8002498,43.9269067 20.3570047,44.7616292 20.3396257,45.1705686 C20.3234408,45.5514213 20.5867154,45.9038267 20.8094364,46.21909 C20.8873388,46.3299749 21.3585481,46.8911078 21.3100086,47 C19.4237642,45.5184441 20.5333813,46.4841642 19.7483656,45.1182103 C19.3436734,44.4137599 18.8612767,43.7741748 18.46018,43.0646544 C16.3426284,39.3181029 16.3034768,35.0680187 19.8436469,32.0000031 L19.8436401,32 Z" fill="#658D5C" id="path182"/><path d="M19.8436401,32 L19.890781,32.0208368 C19.9267362,33.9091615 21.505359,36.484536 21.8922816,38.5614553 C22.2260629,40.3501135 21.744867,41.8452641 20.9892124,43.5116287 C20.8002498,43.9269067 20.3570047,44.7616292 20.3396257,45.1705686 C20.3234408,45.5514213 20.5867154,45.9038267 20.8094364,46.21909 C20.8873388,46.3299749 21.3585481,46.8911078 21.3100086,47 C19.4237642,45.5184441 20.5333813,46.4841642 19.7483656,45.1182103 C19.3436734,44.4137599 18.8612767,43.7741748 18.46018,43.0646544 C16.3426284,39.3181029 16.3034768,35.0680187 19.8436469,32.0000031 L19.8436401,32 Z" id="path184"/><path d="M28.3651218,50.0810988 C27.5553251,49.5507226 25.8016307,49.5007294 24.4775733,48.6219587 C22.6285479,47.393928 21.6701259,46.2525587 21.1564313,44.2289696 C20.8446627,43.0016301 21.0844106,42.0204578 21.1482148,41 C22.8138403,43.190702 25.707448,43.3969056 27.2555998,46.0176486 C28.1966361,47.6099957 28.0716997,50.0317998 30,51 L29.3296593,50.8716438 C29.0381377,50.590717 28.711086,50.3078846 28.3651218,50.0810988 Z" fill="#658D5C" id="path188"/><path d="M14.966029,43.4305816 C14.966029,43.4305816 14.035127,43.2088884 13.6230655,42.9818289 C12.9073979,42.5856307 11.323418,40.2882033 9.49274361,39.1384681 C6.86823712,37.4905748 4.58215082,37.83477 2,37 C2.73273879,40.0467154 4.13327149,41.8693047 6.73468004,43.1605986 C9.06428399,44.3168094 12.8680605,43.3169681 13.2799548,43.3545348 C13.6920163,43.3930259 15,44 15,44 L14.9660248,43.4305926 L14.966029,43.4305816 Z" fill="#658D5C" id="path194"/><path d="M19.6476825,45.6003271 C19.5316474,44.7753642 18.592743,43.5879448 18.1996146,42.8200715 C17.6239944,41.6941267 17.1917302,40.4654424 17.0630464,39.2028942 C16.7856089,36.4831021 17.4104762,35.0155909 19.2029409,33 C19.2160923,33.5908476 19.2955333,33.7981836 19.4741382,34.3475965 C20.224148,36.6554091 21.2743667,38.5628643 20.9340153,41.0719464 C20.7662028,42.3072019 19.7562951,44.0659352 19.7100838,44.8208316 C19.6864727,45.2117544 19.9074105,45.670723 20.1025454,46 L19.6476825,45.6003186 L19.6476825,45.6003271 Z" fill="#658D5C" id="path196"/><path d="M11.9999985,37.999987 C10.5958756,36.4345137 8.27909022,36.2375159 5.66027541,35.6364598 C4.40752056,35.3490433 3.38441415,34.6970778 2.42937644,33.8770593 C0.946622099,32.6030952 0.456417624,30.8951045 0.16745059,29.0626569 C0.00536093443,28.0352436 -0.0386014552,27.03967 0.0335964241,26 C0.152975003,26.2004087 0.304341497,26.3986031 0.502173007,26.5337986 C1.47488948,27.1978536 2.48853766,27.6611596 3.46285195,28.3316904 C4.31422436,28.9177622 4.91880065,29.304446 5.6170166,30.0539835 C6.49966427,31.0029019 7.23665731,32.0282724 7.85750218,33.1484859 C8.34698794,34.0325312 8.7665984,35.0689734 9.39941623,35.8711071 C9.72734797,36.2877593 11.0506953,36.82905 11.531959,36.8876217 L12,38 L11.9999985,37.999987 Z" fill="#658D5C" id="path208"/><path d="M16.3666578,17 C18.2484416,21.9627659 15.7638566,25.5359391 11.2017003,28 L10,26.3954012 C10.7842921,23.2082665 11.3473393,21.6390108 13.8677651,19.3743357 C14.8643842,18.4789805 15.7376586,18.1882452 16.36665,17 L16.3666578,17 Z" fill="#658D5C" id="path224"/><path d="M23.6103956,48.9999932 C21.6307503,47.4811897 18.0634031,48.0266089 15.9390599,45.9664017 C14.379143,44.453852 13.7215704,42.0685367 14.1083558,40 C15.9937752,41.519916 18.1861188,41.9373132 19.9009897,43.6437475 C21.9190662,45.652689 20.200646,47.0006836 24,48.9554562 L23.6103762,49 L23.6103956,48.9999932 Z" fill="#658D5C" id="path234"/><path d="M13.2585405,38.0814504 L13.2645372,38.0308349 C13.7850677,37.4552777 13.4239946,35.726512 13.2532893,35.0335496 C12.9589217,33.8391256 12.9225698,32.8123734 13.1367407,31.5960406 C13.3838891,30.191326 14.2124671,28.9229773 15.0618513,27.7600433 C15.4405388,27.2420599 16.6706554,25.6225292 16.7982695,25.036011 C16.808756,24.9859168 16.8660998,24.9895705 16.8898966,25.0377487 C17.3588991,25.9870962 17.6039867,27.1429084 17.7932377,28.1691349 C18.0574389,29.606201 18.1402579,30.9122971 17.6026763,32.5464249 C17.121869,34.0092346 16.4754204,34.9559696 15.4853195,35.9399306 C15.0663458,36.3558141 14.0807472,37.2724611 13.9364674,37.7678316 C13.9102355,37.8582783 13.7429077,38.5176728 13.7798213,39 L13.2585405,38.08144 L13.2585405,38.0814504 Z" fill="#658D5C" id="path236"/><path d="M9,19.9999908 L9.06552759,19.3957129 C9.51283858,19.2162392 9.91083233,18.7487374 10.091377,18.2957082 C10.8704636,16.3397641 11.3451933,14.3514378 12.439505,12.5449364 C13.8600719,10.2001901 15.3816911,9.287986 16.9174474,8 C16.9890107,10.0722845 17.3369951,12.2552724 15.7643359,14.9710981 C14.8705753,16.5129192 12.2660369,18.0408009 10.6449145,18.7118378 C9.91980109,19.0121678 9.40092688,19.2562315 9.00000876,20 L9,19.9999908 Z" fill="#658D5C" id="path250"/><path d="M8.92803031,25.398015 L9,26 C7.7627744,24.3593766 7.3488522,24.8442328 5.63859213,24.1501033 C4.14965479,23.5465234 2.94099936,22.4205222 2.07573404,21.102076 C0.783898859,19.133259 0.807949487,16.2199211 1.35350634,14 C2.04716234,15.3400667 4.76121194,16.6842145 5.802773,18.3570811 C6.47274122,19.4329274 6.88846387,20.7114964 7.22100679,21.9234455 C7.38700649,22.5295055 7.57452606,23.7513766 7.8302169,24.2523544 C8.0208092,24.6268003 8.59819269,25.1272439 8.92802418,25.398021 L8.92803031,25.398015 Z" fill="#658D5C" id="path260"/><path d="M13.2985286,37.4679194 C13.803655,36.7938841 13.3610513,35.0854574 13.1997987,34.3121659 C12.9506981,33.1155721 12.9326933,32.082213 13.1560732,30.8745554 C13.5205231,28.9006923 14.9500376,27.5783858 16.212753,25.9787168 C16.4616559,25.6631414 16.7099641,25.3439338 16.9054456,25 C18.3565196,28.5699012 18.7635023,32.216401 15.6011808,35.2147995 C15.1239529,35.667327 13.9761916,36.5396989 13.8000969,37.0892396 C13.7055214,37.3835468 13.6728755,37.6960096 13.6463625,38 L13.298532,37.4679312 L13.2985286,37.4679194 Z" fill="#658D5C" id="path264"/><path d="M23.9113994,51.0000081 C23.9113994,51.0000081 23.752903,51.2304302 23.0088137,51.2304302 C22.2647244,51.2304302 19.937779,50.8772669 18.0761455,51.3217658 C15.2689845,51.992199 14.110069,54.3920753 12,55.2450181 C15.2055099,56.5065677 17.55156,56.1960284 20.2189909,54.2462583 C21.3507293,53.4192727 22.0485308,51.8012006 23.6068492,51.5069916 C24.3181517,51.3730333 24.537136,51.3927417 25,51.556665 L23.911392,51 L23.9113994,51.0000081 Z" fill="#658D5C" id="path268"/><path d="M11.0000015,12 C11.5120566,10.626368 11.5002938,9.0980694 11.7870652,7.67157945 C12.3912651,4.66461355 13.2929309,3.68694326 15.5858557,1.67554669 C16.3164204,1.03491288 17.06463,0.568873269 17.8591844,0 C17.9878671,0.865042204 18.0477523,1.59111243 17.9550717,2.45970156 C17.5039717,6.70859151 15.5938731,7.71142338 12.3912636,10.3099282 C11.7701326,10.8132842 11.6099025,11.518589 11,12 L11.0000015,12 Z" fill="#658D5C" id="path288"/><path d="M9,19.2499195 L8.76898704,20 C8.63933926,19.0239366 8.23282547,18.5890253 7.53750345,17.9524717 C4.50904201,15.1816856 3.21501841,11.9205649 4.48549673,8.10763354 C4.93030619,6.77482985 5.3584272,6.03967843 6.29530029,5 C6.88697399,6.02527584 7.17367607,6.6385551 7.58370307,7.75106622 C8.62264636,10.5742582 9.03706411,12.1703501 8.62510649,15.4041247 C8.47929531,16.5464773 7.93768843,17.9375502 8.68747099,18.9532369 C8.76951209,19.0637419 8.86894367,19.1930778 8.99999703,19.2499286 L9,19.2499195 Z" fill="#658D5C" id="path296"/></g><path d="M72.4959584,84.298358 C72.9321666,84.4033981 72.9209293,84.1818455 73.1941258,84.2426062 C73.4465261,84.298358 73.701275,85.7170422 74.9216812,85.5704688 C75.2324461,85.5329772 75.3882545,85.2146266 75.3882545,85.2146266 C75.3882545,85.2146266 75.8345229,85.9198463 76.3037657,85.9833557 C76.9791249,86.0748205 76.7857595,85.4891849 76.9571587,85.4697919 C77.2315309,85.4392494 77.7359879,86 78.2402887,86 C78.5243874,86 78.4838059,85.5329772 78.783822,85.5329772 C79.0840227,85.5329772 79.6765434,85.8085042 79.9207138,85.4697919 C80.2397001,85.0278169 79.4967524,84.5095683 79.4425823,84.3516853 C79.3877447,84.194288 79.6537252,84.1897619 79.6258947,84.0375364 C79.5225809,83.4756557 78.5757035,83.3858055 78.4936886,83.1875234 C78.4118583,82.9898871 78.6258411,82.7857873 78.5456863,82.4779405 C78.4101828,81.9540344 77.638723,81.9357742 77.2897195,82.0102718 C76.48137,82.1836676 77.2142504,81.3528847 76.6381724,81.1188896 C75.6463544,80.7158606 74.2035538,81.4790951 73.8350973,81.3296156 C73.5873898,81.2291001 73.4929705,81.1993662 73.2813235,81.1636533 C72.3879432,81.0141738 71.5643352,82.2699632 71,82.5319163 L71.2817487,82.8620636 C72.0389539,83.0676218 72.0595826,84.1931619 72.4959584,84.298358 Z" fill="#658D5C" id="path412" stroke="#262626" stroke-width="0.1"/><g fill="#D99F31" id="Group" stroke="#262626" stroke-width="0.1" transform="translate(5.000000, 47.000000)"><path d="M1,15 C1.55242072,15 2,15.4474896 2,15.9997996 C2,16.5521097 1.55242072,17 1,17 C0.44757928,17 0,16.5521097 0,15.9997996 C0,15.4474896 0.44757928,15 1,15 L1,15 Z" id="path214"/><path d="M3.00016045,0.982611832 C3.00952169,0.430277687 3.46515224,-0.00934232029 4.01744572,0.000150898077 C4.56974034,0.00964864457 5.00973072,0.46504125 4.99983634,1.0173754 C4.99033928,1.56970954 4.53497926,2.00973142 3.98268464,1.99983633 C3.43025646,1.99007822 2.99039964,1.53494598 3.00015932,0.982611832 L3.00016045,0.982611832 Z" id="path306"/><path d="M10.0000645,26 C10.5522123,26 11,26.4477877 11,26.9999355 C11,27.5520832 10.5522123,28 10.0000645,28 C9.44791677,28 9,27.5520821 9,26.9999355 C9,26.4477877 9.44791786,26 10.0000645,26 L10.0000645,26 Z" id="path316"/><path d="M13,38 C13.5521834,38 14,38.4477165 14,39.0000645 C14,39.5522835 13.5521834,40 13,40 C12.4478166,40 12,39.5522835 12,39.0000645 C12,38.4477165 12.4478166,38 13,38 L13,38 Z" id="path374"/><path d="M19.9999355,42 C20.5522835,42 21,42.4477165 21,43.0000645 C21,43.5522835 20.5522835,44 19.9999355,44 C19.4477165,44 19,43.5522835 19,43.0000645 C19,42.4477165 19.4477165,42 19.9999355,42 L19.9999355,42 Z" id="path458"/></g><g id="Group" stroke="#262626" stroke-width="0.1" transform="translate(39.000000, 36.000000)"><path d="M40.6033852,19.9999911 L40.3616071,18.9267046 C40.4269612,18.8909858 40.482664,18.8376711 40.5361329,18.7862711 C40.8192903,18.5113284 40.9544957,17.7509676 40.9763972,17.3693925 C41.0236606,16.5405564 40.4281731,16.0652433 40.3985184,15.3759704 C40.3833334,15.0182668 40.7763633,14.8902027 40.8398193,14.5514906 C40.9205191,14.1202591 39.7430207,13.0776373 40.0517152,12.2622195 C40.2615901,11.7097202 40.7701433,11.9951175 40.9757109,11.2753524 C41.1545441,10.6481068 40.6180446,9.52951126 41.2890632,9.1538693 C41.6943288,8.92788667 42.277391,9.29116655 42.4732927,8.56582676 C42.6217704,8.01750957 42.5072693,7.08152173 43.2743333,7.0038088 C44.3171521,6.89839627 44.4735727,9.01429878 44.7446697,9.22443936 C45.0454359,9.45721671 45.2842792,9.1550937 45.5734814,9.26921723 C46.0094383,9.44118731 45.9020041,10.0489192 45.8038707,10.3993045 C45.6904063,10.8066659 45.4939789,11.1425914 45.3272208,11.5210288 C45.2946167,11.5964729 45.2939305,11.6673867 45.3818869,11.7011877 C45.6559187,11.8059039 45.8899291,11.7616483 45.9851277,12.1249267 C46.1142882,12.6181854 45.3642927,13.1570939 45.1982208,13.5480778 C45.0688851,13.8524667 45.5753795,13.929653 45.6412593,14.3328323 C45.735246,14.9018832 43.844824,15.5395836 43.6999528,15.8066856 C43.6830448,16.1797224 44.1735073,16.5656523 43.5775087,16.7672427 C42.080438,17.2739183 40.585791,18.2264607 40.6033852,20 L40.6033852,19.9999911 Z" fill="#658D5C" id="path24"/><path d="M39.8772452,19.2850035 L40,20 C38.0489289,17.075892 36.4566475,18.2374677 36.0381815,17.7622763 C35.7197597,17.4006029 36.1256789,17.1401854 35.8659141,16.8566738 C35.5910616,16.5562858 33.9511311,17.1920556 33.4640022,15.8579882 C33.3626085,15.5805168 33.7244374,15.1222078 33.541488,15.0847264 C33.1265879,14.9996372 32.5673966,15.0117174 32.2825454,14.6182462 C32.1638575,14.4539303 32.0617848,14.229039 32.2169288,14.051578 C32.2974666,13.9599162 32.3922481,13.8819334 32.4593922,13.777659 C32.7128764,13.3827681 31.1712861,13.0781177 31.1665387,12.4903106 C31.163481,12.1535075 31.5861863,12.0318242 31.4312131,11.6172158 C31.2959086,11.2543001 30.8279387,10.6535255 31.0668405,10.2586331 C31.3566085,9.78042911 32.006342,10.3824475 32.3683417,10.4261465 C32.5460355,10.4474628 32.8476727,10.0088729 33.1410023,10.0001692 C33.6077865,9.98577587 33.8068429,10.8944029 34.1637549,10.8576314 C34.5118498,10.8215713 34.9072608,10.2543692 35.2882443,10.7471395 C35.5535935,11.0906926 35.5474923,12.0938195 36.1692482,11.8032029 C36.3177857,11.7339238 36.5388765,11.5440277 36.7052149,11.6197019 C37.7001593,12.0705494 37.4461655,13.7456778 37.6935414,14.6368929 C37.8264743,15.1152744 38.3010565,15.0097576 38.4709551,15.3057029 C38.5531841,15.4494139 38.6218613,15.615682 38.6354274,15.7840843 C38.6474861,15.9285052 38.6260962,16.0709709 38.6074483,16.2132591 C38.5304735,16.7909411 38.5823547,17.3100015 38.7225803,17.8759553 C38.8332908,18.3268028 39.4384372,19.1624163 39.8772452,19.2849869 L39.8772452,19.2850035 Z" fill="#658D5C" id="path50"/><path d="M37.6835565,11 C37.9948783,11.7916694 38.4411283,13.0157641 38.7379904,14.1587324 C40.1307806,19.5186447 40.2592343,25.7123432 39.6629491,29.2908846 C37.8268152,40.3129633 27.9616264,50.5672169 20.0659831,52.1683753 C13.3622629,53.5278164 9.39990966,56.478714 6.58579832,59.6326086 C5.25164674,61.1273933 4.1863271,62.6185387 3.36180921,64.0399522 C2.54391688,65.448764 2.00743568,66.656644 1.28147233,67.8703819 C1.27296918,67.8746936 1.2600605,67.8802183 1.24085863,67.8867823 C1.19191732,67.9045624 1.12666175,67.9200989 1.05155202,67.9347717 C0.891983413,67.965155 0.689932144,67.9888048 0.498247238,67.9967455 C0.30282296,68.0052081 0.129491047,67.9973301 0.024981423,67.9711971 L0,67.9644593 C0.102131332,67.8037427 0.20375046,67.6471698 0.303502061,67.4807574 C0.995812497,66.3215641 1.59754927,65.1915468 2.38910486,63.8488539 C3.17827784,62.5111639 4.11171951,61.0994216 5.38198379,59.640884 C8.31011792,56.2784515 12.4716262,53.0259735 19.583699,51.574013 C27.8630488,49.88364 37.3173024,39.4536755 39.1688599,28.3397512 C39.7716196,24.7206218 39.7585412,18.4709887 37.4946743,11.6993971 L37.6834702,11.0000833 L37.6835565,11 Z" fill="#A48253" id="path448"/><path d="M40.1153807,27.789735 C40.5547759,27.7702196 40.8288401,27.0397481 40.9615263,26.722123 C41.1345973,26.3081002 41.2118246,25.8952539 41.229333,25.453977 C41.2558765,24.8128383 40.7536414,23.6865077 41.8441712,23.8391014 C41.8441712,23.8391014 42.0741991,22.3362675 42.5458335,21.9897019 C42.8532604,21.7642682 43.4021221,21.8921262 43.5348239,21.8026253 C43.8492573,21.5909868 43.7274319,20.6746168 44.4056717,20.5575272 C44.6683133,20.5119356 45.1394016,20.749146 45.3395622,20.6581311 C45.5903911,20.5440682 45.6803362,19.8564962 46.1604595,19.7395746 C46.4606927,19.666729 46.8584236,19.9624843 47.0541681,19.8507773 C47.467566,19.6152505 47.7823583,18.8699741 48.3669859,19.019702 C49.0267966,19.188273 48.7940223,20.1026232 48.6263037,20.4771124 C48.5063197,20.7451093 48.8401028,20.8421793 48.9586044,21.0390129 C49.1803306,21.4086221 48.4434642,21.9959264 48.3515061,22.3219639 C48.3164737,22.4430917 48.6412217,22.5909693 48.7226935,22.6703756 C49.2133188,23.1488331 47.9497024,23.994712 47.6102236,24.2591707 C47.5090276,24.3377352 47.2893455,24.4950351 47.2771739,24.6212095 C47.2511922,24.8895425 47.5680131,25.0853662 47.4863696,25.4125816 C47.2089817,26.5232612 45.5151924,26.1957095 44.8496703,26.3985995 C44.5813175,26.4800241 44.5424307,26.9774928 44.3765535,27.1852613 C43.8440922,27.8524761 41.5096546,27.2078049 40.8832066,27.7300022 C40.5086954,28.0422447 40.2066053,28.579415 40,29 L40.1153807,27.7897265 L40.1153807,27.789735 Z" fill="#658D5C" id="path58"/><path d="M32.4935185,22.322934 C32.3163827,21.795903 31.474452,21.4325067 31.3860631,20.7979507 C31.3460989,20.5095954 31.6733676,20.0192179 31.6460049,19.9337524 C31.5005527,19.4756839 30.7088451,18.8850762 31.114419,18.3153191 C31.6379042,17.5793183 32.3833468,18.339117 33.0038672,18.5131732 C33.1055754,18.4758256 33.1397784,18.1466487 33.3822598,18.0844619 C34.332201,17.840749 35.1593644,19.3297759 35.4088797,19.4201036 C36.1455068,19.6895248 36.72335,18.4318787 37.1238913,21.1802856 C37.4390965,21.1075022 37.8675446,21.0324598 38.057634,21.3451351 C38.8410671,22.6404759 38.3836453,25.4316119 39.9492312,26.1815214 L40,26.2805352 C39.9785707,26.3903192 39.9278172,27.2154329 39.6981157,26.9463588 C39.3024364,26.4834266 38.991011,25.8248993 38.3019215,25.7083411 C37.5746526,25.5855294 34.3991896,26.6941348 34.3138398,25.3022113 C34.3037653,25.1378839 34.5341817,24.9124096 34.4580362,24.7529459 C34.2765764,24.3695727 32.3689529,24.5038487 32.1687738,23.4748008 C32.090467,23.0711036 32.3846118,22.7033628 32.4935216,22.3229428 L32.4935185,22.322934 Z" fill="#658D5C" id="path84"/><path d="M32.4935185,22.322934 C32.3163827,21.795903 31.474452,21.4325067 31.3860631,20.7979507 C31.3460989,20.5095954 31.6733676,20.0192179 31.6460049,19.9337524 C31.5005527,19.4756839 30.7088451,18.8850762 31.114419,18.3153191 C31.6379042,17.5793183 32.3833468,18.339117 33.0038672,18.5131732 C33.1055754,18.4758256 33.1397784,18.1466487 33.3822598,18.0844619 C34.332201,17.840749 35.1593644,19.3297759 35.4088797,19.4201036 C36.1455068,19.6895248 36.72335,18.4318787 37.1238913,21.1802856 C37.4390965,21.1075022 37.8675446,21.0324598 38.057634,21.3451351 C38.8410671,22.6404759 38.3836453,25.4316119 39.9492312,26.1815214 L40,26.2805352 C39.9785707,26.3903192 39.9278172,27.2154329 39.6981157,26.9463588 C39.3024364,26.4834266 38.991011,25.8248993 38.3019215,25.7083411 C37.5746526,25.5855294 34.3991896,26.6941348 34.3138398,25.3022113 C34.3037653,25.1378839 34.5341817,24.9124096 34.4580362,24.7529459 C34.2765764,24.3695727 32.3689529,24.5038487 32.1687738,23.4748008 C32.090467,23.0711036 32.3846118,22.7033628 32.4935216,22.3229428 L32.4935185,22.322934 Z" id="path86"/><path d="M40.8965147,27 C39.6626465,25.1762969 39.1108538,25.864219 37.2371353,25.9986491 C36.8097472,26.0290871 35.368538,26.0865194 35.3940309,25.3991433 C35.4014388,25.2034752 35.5572304,25.1520222 35.4294117,24.9163137 C35.1572177,24.4117436 33.4685617,24.5041421 33.2144543,23.5698259 C33.0828302,23.0862723 33.3616736,22.434588 33.2907268,22.2523266 C33.0552502,21.6453934 32.0068327,21.0777737 32.3183901,20.2827763 C32.3598551,20.1771521 32.4212908,20.0796793 32.4414532,19.9662643 C32.5042224,19.6153291 31.7511937,18.8114594 32.0863373,18.2934857 C32.4756907,17.6910807 33.1554889,18.166845 33.6732311,18.3902329 C34.0437539,18.5503917 33.949981,18.238046 34.1949686,18.1610467 C34.6227433,18.0258911 35.1558923,18.4152346 35.4421662,18.6763069 C35.6026924,18.8234211 36.1101666,19.4000987 36.2393219,19.4573485 C36.5415486,19.5910545 37.0551101,19.4388691 37.4056653,19.5560883 C37.7204532,19.6618935 37.9338655,20.9210555 37.9814211,21.2420895 L38.0422787,21.282311 C38.3291098,21.2230656 38.7517472,21.2256027 38.9237074,21.4919303 C39.706015,22.7072461 39.3216089,25.6087533 41,26.4896178 L40.8965147,26.9999877 L40.8965147,27 Z" fill="#658D5C" id="path88"/><path d="M28.9115028,47 C28.9572122,46.6311216 28.9977899,46.1327294 28.9125892,45.7709388 C28.7897331,45.2475643 27.7457841,44.5891826 27.6995927,44.1356127 C27.6697603,43.8466405 27.8694414,43.7711641 27.9111407,43.4099045 C27.9675967,42.9230284 26.8821059,42.611378 27.0105757,41.9411262 C27.0888442,41.5306116 27.5531602,41.3344793 27.5090546,40.9700306 C27.4848359,40.7669889 26.935034,40.265406 27.0522764,39.7439816 C27.1475448,39.3223049 27.5615006,39.4904443 27.8015978,39.2781891 C28.0651111,39.0462679 27.2851562,38.3388081 27.5339143,37.9132342 C27.7311891,37.5751855 28.2708866,37.7233033 28.423734,37.4841172 C28.582195,37.2367811 28.2968692,36.2040293 29.0484366,36.0114402 C29.6429864,35.8594237 29.7640772,37.2690268 30.0162043,37.4740171 C30.2546978,37.6685549 30.3629575,37.320229 30.7361753,37.3762165 C31.1039398,37.4316729 30.8203779,38.4240276 30.9658477,38.7230984 C31.1230255,39.0475054 31.3729066,38.7897169 31.6272783,38.8899972 C32.0377049,39.0519352 31.6328866,40.0138173 31.6328866,40.3483229 C31.6328866,40.6977123 31.9672907,40.6971798 31.9971217,41.1107065 C32.045718,41.7829069 31.4670465,41.9529949 31.160871,42.3672297 C31.0761864,42.4811532 31.0688087,42.5871037 31.1626363,42.6987231 C31.7135612,43.3544466 31.3249471,43.7483059 30.7892582,44.1756513 C29.9570175,44.8402343 28.9791495,45.2076937 29.3982343,46.5464211 L28.9114635,46.999988 L28.9115028,47 Z" fill="#658D5C" id="path110"/><path d="M37.5246786,42.7856492 C38.4073923,42.7421345 39.2514465,43.1419126 39.7850252,42.9452641 C40.5796905,42.6536236 40.0945784,42.0227565 40.4776539,41.9875745 C40.8607293,41.9516524 42.7935535,42.0962686 42.7915705,41.1152461 C42.7915705,40.9263736 42.6357948,40.8526781 42.7053359,40.6399193 C42.7748616,40.4269755 44.2291219,40.4986361 44.2814161,39.706301 C44.3144496,39.2011617 43.8632934,39.1954221 43.9328345,38.8893379 C44.0023602,38.5834402 45.5599176,37.0806162 44.7837751,36.4584517 C44.2492741,36.0299727 43.3736466,36.7780516 43.2912088,36.5593683 C43.1833771,36.2742089 43.1592283,36.0357122 42.8048362,36.0020117 C42.2923012,35.9538675 41.982748,36.7858293 41.6483237,36.7858293 C41.3131768,36.7858293 41.1606752,36.444008 40.8171816,36.475302 C40.3678238,36.5156686 40.300112,37.2156049 39.9170211,37.2156049 C39.5341301,37.2156049 38.9366363,36.998773 38.9366363,36.998773 L37,42.8260174 C37,42.8260174 37.3197138,42.7954649 37.524694,42.7856507 L37.5246786,42.7856492 Z" fill="#658D5C" id="path142"/><path d="M38,37 C38,37 38.7514728,36.1108362 39.357088,35.7646544 C40.5323636,35.0917584 42.4423265,36.1746378 42.7260583,35.5653493 C42.8708965,35.2550184 42.6522823,35.0279568 42.8345972,34.9452669 C43.0165675,34.8625769 45.1005315,35.3323114 45.1832962,34.2613845 C45.1989043,34.0684408 44.9663907,33.9709081 45.1469969,33.7646639 C45.3281344,33.5588048 46.6441703,33.4585745 46.5123987,32.7515607 C46.470844,32.525271 46.1844128,32.4614694 46.2578442,32.2351797 C46.3306007,32.0081182 47.316784,30.9427791 46.895853,30.2895368 C46.7730701,30.0989056 46.4630472,30.1362988 46.4861075,29.9032626 C46.5595389,29.1794803 46.773745,28.0605639 46.2476637,28.0021559 C45.6824114,27.9398965 45.0218448,29.246368 44.801206,29.2966765 C44.52731,29.3589359 44.3641643,29.0520746 44.0904406,29.1517272 C43.6359241,29.3169161 43.5633399,30.0821388 43.3808671,30.0821388 C43.1990547,30.0821388 43.2127962,29.8685703 42.9204203,29.8753168 C42.0278426,29.8965193 41.9528892,31.5241219 41.5061839,31.9240672 C41.2516151,32.1517065 41.1013636,31.8448468 40.8503557,31.9038276 C40.2318606,32.0480066 40.4143335,33.805897 40.0865055,34.3652688 C39.7583473,34.9242488 39.0489461,35.5855791 38.903433,35.6690409 C38.7572451,35.7517325 38.4711297,35.7509606 38.4711297,35.7509606 L38,36.9999918 L38,37 Z" fill="#658D5C" id="path248"/><path d="M39,11.999976 C39,11.999976 38.4800721,10.6008863 38.0358947,10.0905373 C37.5658177,9.54898654 37.2280164,9.43537114 36.3742766,9.18428243 C35.6191337,8.96188961 34.4397277,8.78304138 34.3900763,8.23815419 C34.3398771,7.693267 34.4092863,7.79637164 34.1939948,7.74415118 C33.5008209,7.57648044 32.634211,7.3654332 32.7998557,6.73345683 C32.9654928,6.10114711 33.2210148,6.00271377 32.9241745,5.87007843 C32.4857985,5.67538001 31.333044,5.05758561 31.4707745,4.51686826 C31.6077776,3.97548419 32.1206368,3.96830986 31.9046195,3.63630622 C31.7493117,3.39889803 31.1935046,3.13830005 31.238085,2.70552672 C31.2688916,2.41039338 31.6746489,2.31479644 31.6625061,2.05202879 C31.6503695,1.7887611 30.5608592,0.621401157 31.2018407,0.133917053 C31.7861006,-0.310033766 32.8177968,0.483605782 33.0814739,0.583874021 C33.3458767,0.684142259 33.6497858,0.169119137 34.0365127,0.253705278 C34.533605,0.362816061 34.5596996,1.04784628 34.7061282,1.29076058 C34.9743362,1.73354463 35.5230837,1.15745852 35.9523932,1.36984061 C36.6680421,1.72420064 36.4188646,2.94244334 36.6120386,3.18886217 C36.8043226,3.43511291 37.333119,3.04154623 37.708435,3.23157336 C38.2921456,3.52837491 37.7927012,5.30701458 37.8307529,5.59898805 C37.8690041,5.89195313 38.2934191,5.64019629 38.5355386,5.81387318 C39.1803161,6.27601054 38.395453,7.67843526 38.5195814,8.86163974 C38.562359,9.27055515 38.6687351,9.90570269 38.6687351,9.90570269 L39,12 L39,11.999976 Z" fill="#658D5C" id="path314"/><path d="M33.2268335,54.7749711 C33.4142811,55.0946539 33.7546708,55.3152048 33.9123004,55.6438693 C34.1350945,56.1059285 33.9265386,56.5754739 33.3646964,56.5410437 C33.1214663,56.5262402 32.8976666,56.3397872 32.6644879,56.3209914 C32.4758673,56.3065203 31.9364724,57.0227295 31.4134927,56.9994442 C30.7007209,56.9683403 30.361002,56.1047653 29.9263077,55.6631637 C29.5800562,55.5906447 29.3256017,56.0971143 28.9409898,56.0280878 C28.1506592,55.8865423 28.1888522,54.6410766 27.9161387,54.0925259 C27.698371,53.9316861 27.3690382,54.271994 26.9308209,53.9642869 C26.2535616,53.489586 26.6081895,51.9971241 25.8818476,51.5796359 C25.2422792,51.2117179 23.8895972,51.4555554 24.0072014,51.3943461 L24.7611814,51.0053044 C24.8082529,50.9806883 24.9524825,51.0492149 24.999554,51.058529 C26.2353054,51.3028651 27.8891672,51.1017748 29.1559082,51.1017748 C29.7631468,51.1017748 29.6654865,51.58895 29.7631468,51.6884143 L29.8120606,51.6958921 C30.4427505,51.7393041 31.195559,51.6935685 31.7332832,52.08826 C32.3840745,52.5679504 31.7681262,52.9965778 31.7657818,53.1041931 L31.7950964,53.1181629 L31.9327934,53.1644026 L32.3576093,53.2883168 C32.6867748,53.3931043 33.0554721,53.5379761 33.2762565,53.8164086 C33.5980511,54.2222492 33.2368905,54.4116975 33.2268392,54.7749585 L33.2268335,54.7749711 Z" fill="#658D5C" id="path388"/><path d="M17.0000014,53 C17.0000014,53 19.2315909,51.9617093 19.4138295,51.4405926 C19.694504,50.641674 19.3884602,49.4317589 19.7791236,49.1426961 C20.0337859,48.9535581 20.2889294,49.0483065 20.4560817,48.7794378 C20.623555,48.5103905 20.4063057,47.2068017 21.0092413,46.6801528 C21.3868986,46.3506821 21.7273047,46.646008 22.1874948,46.2859676 C22.6831701,45.8967878 22.0569519,44.9359044 22.8146768,44.6198379 C23.2607364,44.4337391 23.7090446,45.0415536 23.9314328,44.9768391 C24.3587057,44.8529529 24.5844667,43.9063713 25.2111661,44.0075539 C25.7151913,44.0887149 25.4685582,44.6600612 25.4364445,45.2004791 C25.4178182,45.5110014 25.8552084,45.3669134 25.9852687,45.8020364 C26.0806459,46.1188143 25.691588,46.7993878 25.4313057,47.0528831 C25.2827795,47.1973282 25.8836284,47.4511807 25.8475002,47.9011412 C25.7949943,48.5479272 24.6742238,48.5931559 24.4141032,48.6968419 C24.0781929,48.8302031 24.3811861,49.3890352 24.1531792,49.7145737 C23.7885281,50.23497 22.8536953,49.911935 22.6870188,50.1602447 C22.5346385,50.3871026 22.8734391,50.9714989 22.4443988,51.3299305 C21.9984996,51.702128 20.2651629,51.4663309 19.9840084,51.5819954 C19.1485687,51.9245162 18.4682405,52.2815189 18.4682405,52.2815189 L17,52.9999909 L17.0000014,53 Z" fill="#658D5C" id="path426"/><path d="M37.3482513,35.2115494 L37.1063662,36 C37.1063662,34.9110617 37.0625038,34.3925094 35.7464175,34.4609419 C35.5424344,34.4708399 35.3325062,34.4931307 35.1299749,34.4621399 C34.4611878,34.3595599 34.9765482,33.9658662 34.7638995,33.6660853 C34.5036136,33.3005119 32.743111,33.6289446 32.5992361,32.7644441 C32.5440001,32.4299977 32.9245133,32.0318821 32.645446,31.7694186 C32.2228753,31.3728948 31.1703287,31.0290745 31.2827846,30.3019961 C31.3297174,30.0029219 31.7385685,29.785913 31.6795423,29.5073551 C31.6006602,29.1361214 30.8441483,28.4905765 31.0289878,28.0827336 C31.1761027,27.7574844 31.4459635,27.8625411 31.4714144,27.5555081 C31.5004767,27.2127495 30.888191,26.3572695 31.4338685,26.0972828 C32.1535574,25.7545242 32.6409314,26.4237703 33.258453,26.4729369 C33.6165827,26.5014121 33.8595468,26.083487 34.2333814,26.1651972 C34.7169652,26.2702524 34.7200371,27.0330579 35.0310629,27.1892279 C35.1453191,27.2458232 35.4879197,26.9616066 35.6491255,26.9435671 C36.5153852,26.8461159 36.318799,28.4925232 36.6137623,28.8780813 C36.720973,29.0174486 36.9495008,28.87883 37.1043794,28.926011 C37.6464546,29.0913767 37.0657438,30.8914772 37.2892281,31.132189 C37.3652155,31.2142526 37.6406776,31.168268 37.7612457,31.2011651 C38.2137927,31.3256748 37.8977083,32.470325 37.8229893,32.7515288 C37.6547533,33.3827492 37.0727893,34.622552 37.3482513,35.211506 L37.3482513,35.2115494 Z" fill="#658D5C" id="path436"/><path d="M39.0644542,33.9999741 C39.391896,33.1160263 39.2754478,32.2543678 38.6247665,31.7716833 C37.9279634,31.2546852 36.9987687,30.0273247 37.0000012,29.3164357 C37.0019316,28.4761554 37.8169352,28.9879425 37.8546524,28.5906258 C37.8830591,28.2941198 36.7835727,27.4051405 37.1755496,26.7519363 C37.4309129,26.3273033 38.11107,26.3765424 38.283114,26.1635968 C38.569349,25.8092265 37.8595675,24.2372101 38.4213164,23.505112 C38.7301668,23.1025828 38.969582,23.5304505 39.1754824,23.3818369 C39.3747153,23.2371776 39.0551585,22.0355206 39.8112549,22.0006578 C40.5396277,21.9672343 41.0752566,23.2188485 41.191883,23.1802124 C41.4274225,23.1025828 41.7073466,22.8504625 41.9725253,23.1083324 C42.2308733,23.3591945 42.1501971,25.4952967 42.1501971,25.4952967 C42.1501971,25.4952967 42.6453023,25.4460591 42.8038482,25.5457926 C43.4622511,25.9609012 42.2796236,28.385788 41.9465687,29.0505005 C41.6624423,29.617815 42.4948195,29.6891564 42.0681102,30.2717464 C41.3658722,31.231527 39.9624356,32.3832343 39.7403941,33.7953205 L39.0644542,34 L39.0644542,33.9999741 Z" fill="#658D5C" id="path466"/><path d="M31.0000041,46.5471832 C31.0000041,46.5471832 31.7561851,46.1201786 32.0286062,45.6438473 C32.2966175,45.173572 32.3312412,45.0047636 32.3207887,44.2615114 C32.314414,43.8101103 31.953804,42.2568237 32.3598221,42.0094961 C32.6934883,41.8066769 32.878369,42.2043022 33.2941869,41.7760493 C33.8011376,41.2539566 33.0575331,39.4471144 33.7794167,38.9591983 C34.2146698,38.6650315 34.6077961,39.1853436 35.1109801,38.6944123 C35.4542858,38.3596464 35.3956554,37.2331925 36.0716469,37.0487076 C36.4953067,36.9327856 36.8324036,37.2928375 37.2331919,37.3516006 C37.7231565,37.4235405 38.8399543,35.6474902 39.5397852,36.0631061 C39.8465022,36.245447 39.9373101,36.5013289 39.8809614,36.8683266 C39.8202015,37.263814 39.6145804,37.6133593 39.536024,37.9995884 C39.4349281,38.497286 40.0521233,38.4534816 39.9964383,38.978781 C39.9441688,39.4775475 39.4014507,39.9560137 39.4014507,40.2797407 C39.4014507,40.6340938 39.8907654,40.8643354 39.9224451,41.3002441 C39.9820573,42.1264765 38.3971845,42.1428585 38.2691379,42.5960401 C38.1422392,43.0451255 38.4505879,43.3818514 38.1508954,43.9114234 C37.8270318,44.4826634 36.7118657,43.9773086 36.2761203,44.1712237 C35.9124047,44.3321969 36.1325589,45.2280535 35.9120728,45.5870365 C35.3033679,46.5767344 32.3581835,45.1867412 31.1482961,47 L31,46.5471757 L31.0000041,46.5471832 Z" fill="#658D5C" id="path478"/></g><g id="Group" stroke="#262626" stroke-width="0.1" transform="translate(68.000000, 44.000000)"><path d="M15.8197302,9.11574767 C16.237026,9.4491813 15.8331399,10.7439662 15.5791124,10.9424767 C15.3634097,11.1117091 14.7503481,10.8858514 14.3949733,10.5476443 C14.0721077,10.2396215 13.9181999,9.80918893 14.0435217,9.66781805 C14.4297881,9.23183869 15.4025721,8.7824451 15.8197417,9.11574986 L15.8197302,9.11574767 Z" fill="#D99F31" id="path78"/><path d="M2.78196842,40.3172443 C3.46942846,40.9711295 2.37796536,43.1255335 1.62784878,42.9942517 C0.337472961,42.7684933 -0.127248471,41.4034246 0.029135089,40.841297 C0.189923988,40.2604896 2.01862089,39.5910105 2.78197889,40.3172458 L2.78196842,40.3172443 Z" fill="#A48253" id="path404"/><path d="M2.12260889,42.8445507 C1.92264913,42.6951102 1.97424736,42.0114366 2.22657776,41.5557427 C2.45548948,41.1429383 2.81024501,40.9427024 2.9573199,41.014272 C3.49788113,41.2785744 4.17470779,42.1631522 3.95879314,42.6451205 C3.74442113,43.1234642 2.38729248,43.041439 2.12261215,42.8445529 L2.12260889,42.8445507 Z" fill="#D99F31" id="path486"/><path d="M10.6518021,4.99349341 C10.201619,4.90072938 9.84956326,3.6644621 10.065001,2.53683312 C10.2667724,1.47860386 12.1610922,2.14775644 11.9889577,3.13944668 C11.8010001,4.22389946 11.0916674,5.08375019 10.6518021,4.99348888 L10.6518021,4.99349341 Z" fill="#A48253" id="path500"/><path d="M11.3224269,0.00502644544 C11.7030113,0.0883164134 12.1067839,1.27792599 11.9742696,2.48840589 C11.9107707,3.07315891 11.253131,3.04099101 10.9171349,2.94678765 C10.5551806,2.8449245 9.94599786,2.50908491 10.00384,2.04610727 C10.1645215,0.754825828 10.9720785,-0.0725198899 11.3224269,0.00501833983 L11.3224269,0.00502644544 Z" fill="#D99F31" id="path504"/></g><path d="M11.1604202,71.6980215 C10.6678045,70.961216 9.62038073,70.1414655 9.02821736,69.5407719 C8.00986106,68.5080047 7.37788103,67.3245047 7.14566683,65.9011352 C6.59737609,62.5368165 7.59916996,60.2742648 10.1128234,58 C10.2715665,60.3601178 11.6533999,62.3167282 11.9458642,64.6735826 C12.3651878,68.0542473 10.1625122,68.6914354 11.692508,72 L11.1604261,71.6980156 L11.1604202,71.6980215 Z" fill="#658D5C" id="path520" stroke="#262626" stroke-width="0.1"/><path d="M32.7012337,33 C32.7012337,33 32.4828773,32.7161632 32.3996549,32.5039938 C32.2793295,32.1973301 32.2949869,31.6609783 32.2949869,31.6609783 L31,30.251173 L33.4516105,27.8272431 L38.1129819,26.436726 L44.0004179,26 L49.8871766,26.436726 L54.5492396,27.8272431 L57,30.251173 L55.7058632,31.6609783 C55.7058632,31.6609783 55.7208405,32.1973301 55.6005151,32.5039938 C55.5179715,32.7161632 55.2989364,33 55.2989364,33 L49.9632561,31.2838906 L44.0004294,31.0058938 L38.037084,31.2838906 L32.7012452,33 L32.7012337,33 Z" fill="#F1BF31" id="path582" stroke="#262626" stroke-width="0.1"/><path d="M41.6358908,13.0436579 C37.791611,17.6537649 31.2607589,15.444527 28.1825724,17.2393131 C22.8268052,20.3609975 28.8757627,27.584101 29.972713,29 L35.01396,27.4147163 C32.87041,25.6311424 28.7986544,22.5097991 30.092759,20.0481528 C31.4188629,17.5243201 38.5954101,20.0390465 41.6773031,14.6511881 C42.3255386,13.5180195 41.8288382,12.812962 41.6358836,13.0436579 L41.6358908,13.0436579 Z" fill="#F1BF31" id="path588" stroke="#262626" stroke-width="0.1"/><path d="M33.1674912,28.2806364 L33,28.1816573 L34,28 L33.1674912,28.2806364 Z" fill="#D99F31" id="polygon596" stroke="#262626" stroke-width="0.1"/><path d="M33.1674912,28.2806364 L33,28.1816573 L34,28 L33.1674912,28.2806364 Z" id="polygon598" stroke="#262626" stroke-width="0.1"/><path d="M34.8866791,27 L35,27.1330147 L33,28 L33.4520792,27.6373402 C33.9549925,27.4560102 34.4325891,27.2430661 34.8866791,27 L34.8866791,27 Z" fill="#F1BF31" id="path600" stroke="#262626" stroke-width="0.1"/><path d="M34.8866791,27 L35,27.1330147 L33,28 L33.4520792,27.6373402 C33.9549925,27.4560102 34.4325891,27.2430661 34.8866791,27 L34.8866791,27 Z" id="path602" stroke="#262626" stroke-width="0.1"/><path d="M46.3641249,13.0436579 C50.2084193,17.6537649 56.7392964,15.444527 59.8174947,17.2393131 C65.1731113,20.3609975 59.1243017,27.584101 58.0273472,29 L52.9859099,27.4147163 C55.1296391,25.6311424 59.2012392,22.5097991 57.9076287,20.0481528 C56.5811832,17.5243201 49.4044318,20.0390465 46.3226981,14.6511881 C45.6744602,13.5180195 46.1711625,12.812962 46.3641178,13.0436579 L46.3641249,13.0436579 Z" fill="#F1BF31" id="path632" stroke="#262626" stroke-width="0.1"/><path d="M44.0228062,23 L41.9786145,23 C41.9786145,23 42.2932277,21.0312543 42.0394902,19.6920845 C41.8328659,18.6023611 41.1057094,17.7567187 41.0097199,16.6512834 C40.8733234,15.0917734 42.2175291,13 42.2175291,13 L44.0228077,13 L45.8282506,13 C45.8282506,13 47.1260495,15.0917734 46.9900056,16.6512834 C46.8940161,17.7567202 46.2127374,18.6023565 46.0061132,19.6920845 C45.7525534,21.0312498 46.0669888,23 46.0669888,23 L44.0227972,23 L44.0228062,23 Z" fill="#F1BF31" id="path670" stroke="#262626" stroke-width="0.1"/><path d="M44.1608578,6.58829893 L44.0427331,4.68119062 L44.0276294,4.29895534 C44.0000864,3.58319678 45.1463073,4.52206919 45.6125314,4.52206919 C46.0787554,4.52206919 46.5,4.08348332 46.5,3.5467117 C46.5,3.0095584 46.0787554,2.57116337 45.6125314,2.57116337 L45.6125356,2.57115044 C45.137013,2.57115044 44.5068056,3.02100739 44.1990887,2.79063502 C43.6827407,2.40324535 44.3899602,1.57096389 44.3899602,1.02082029 C44.3899602,0.484431976 43.9668901,0 43.5000028,0 C43.0332813,0 42.6100455,0.484430359 42.6100455,1.02082029 C42.6100455,1.57096065 43.3139457,2.42731104 42.8020791,2.79063502 C42.4764311,3.02100739 41.846887,2.57115044 41.3876345,2.57115044 C40.9214105,2.57115044 40.5,3.00954546 40.5,3.54669876 C40.5,4.08347038 40.9214105,4.52205625 41.3876345,4.52205625 C41.8178432,4.52205625 42.9987571,3.58375637 42.9713701,4.2989424 L42.9572627,4.66723317 L42.8380824,6.58847906 C41.7782341,6.87851656 41,7.84825057 41,8.99982653 C41,10.3804172 42.1185613,11.5 43.499917,11.5 C44.8805547,11.5 46,10.3804203 46,8.99982653 C46,7.84800759 45.2208279,6.87811414 44.1608578,6.58829893 Z" fill="#E5B731" id="path690" stroke="#262626" stroke-width="0.1"/><path d="M45.2929721,15.3008963 L43.4996447,15.3008963 L41.7134968,15.3002389 C41.4103264,15.8685365 40.4532575,16.2541944 39.6699835,15.8004102 C39.1138205,15.4776381 39,14.7447509 39,14.7447509 C39,14.7447509 40.4987176,14.8055004 40.5067556,13.3335176 C40.5067556,11.8417364 41.2786698,10.8672035 42.3883682,11.0147226 C42.8726729,11.0787718 43.2003201,11.3499164 43.4996447,11.6519221 C43.799668,11.3499164 44.1285409,11.0779962 44.613719,11.0147226 C45.7230726,10.8685724 46.4934072,11.8417429 46.4934072,13.3218831 C46.4934072,14.8062892 48,14.7461198 48,14.7461198 C48,14.7461198 47.8863542,15.477648 47.3300165,15.8004201 C46.5437656,16.2555632 45.5810982,15.865245 45.2929721,15.3008305 L45.2929721,15.3008963 Z" fill="#D99F31" id="path698" stroke="#262626" stroke-width="0.1"/><path d="M43.9997399,30.0000002 C50.7343017,29.9993871 55.5,31.4701306 55.5,33.7742546 C55.5,35.6174851 50.7343161,37 43.9997399,37 C37.2658573,37 32.5,35.6174882 32.5,33.7742546 C32.5,31.4701245 37.2658573,30.0000002 43.9997399,30.0000002 Z" fill="#F1BF31" id="path708" stroke="#262626" stroke-width="0.1"/><path d="M33,34.5 C33,33.1193335 37.669169,32 43.9995589,32 C50.3315337,32 55,33.1193335 55,34.5 C55,35.8806665 50.3315486,37 43.9995589,37 C37.669169,37 33,35.8806665 33,34.5 L33,34.5 Z" fill="#D99F31" id="path712" stroke="#262626" stroke-width="0.1"/><path d="M33,34.5020277 C33,33.0754947 37.6150311,32 43.9998266,32 C50.3849689,32 55,33.0754988 55,34.5020277 C55,35.9285606 50.3849689,37 43.9998266,37 C37.6150461,37 33,35.9285606 33,34.5020277 L33,34.5020277 Z" id="path750" stroke="#262626" stroke-width="0.1"/><path d="M27,27.0168447 C27.3174639,26.7636451 27.8748578,26.6668329 28.46543,26.6259607 C29.157981,26.5785077 29.7344102,26.6746264 30.223357,26.904793 C29.7641008,25.2766658 30.5099121,23.6112942 30.5099121,23.6112942 C30.5099121,23.6112942 31.9784853,23.6168369 33.4219157,24.7669734 C33.4692385,22.7942027 34.0997988,21.8156841 34.0997988,21.8156841 C34.0997988,21.8156841 35.5058566,21.9708602 37.0393907,23.482786 C37.3685537,21.4459225 38.4435279,20.2963138 38.4435279,20.2963138 C38.4435279,20.2963138 40.2852692,20.8631561 41.3382335,22.7898624 C42.0400397,19.9979033 43.9996518,19 43.9996518,19 C43.9996518,19 45.9601288,19.9979062 46.6619424,22.7898624 C47.7147396,20.8631487 49.556648,20.2963138 49.556648,20.2963138 C49.556648,20.2963138 50.6660232,21.3259131 50.9607852,23.482786 C52.4944879,21.9708646 53.9003771,21.8156841 53.9003771,21.8156841 C53.9003771,21.8156841 54.530763,22.7941924 54.5782602,24.7669734 C56.0216877,23.6168369 57.6730911,23.9290924 57.6730911,23.9290924 C57.6730911,23.9290924 58.2360737,25.2766629 57.7769919,26.9047959 C58.2655854,26.6746293 58.8420131,26.5785106 59.5340466,26.6259637 C60.1246188,26.6668358 60.6827121,26.7636481 61,27.0168476 C59.6328836,27.541778 58.3146601,28.5805594 57.4017362,30 C56.4027227,27.9759521 51.0117864,25.9354668 43.9996533,25.9354668 C36.9883925,25.9354668 31.5972803,27.9759668 30.5984427,30 C29.6853414,28.5805535 28.3672864,27.5417722 27,27.0168447 Z" fill="#F1BF31" id="path782" stroke="#262626" stroke-width="0.1"/><path d="M30.5000088,30.4781627 C30.5000088,28.4879631 36.2957695,26 43.9999234,26 C51.7042393,26 57.5,28.4879631 57.5,30.4781627 C57.5,31.0295499 56.8968695,31.0847587 56.8424182,30.9150601 C56.1949258,28.8972635 51.704229,27.1192395 43.9999131,27.1192395 C36.2957739,27.1192395 31.8050816,28.8972635 31.157408,30.9150601 C31.1029582,31.0847587 30.5,31.0295484 30.5,30.4781627 L30.5000088,30.4781627 Z" fill="#F1BF31" id="path858" stroke="#262626" stroke-width="0.1"/><path d="M64,62.0897392 C64,84.9207965 43.5003632,94 43.5003632,94 C43.5003632,94 23,85.2046435 23,60.3575966 C23,38.1873525 43.1350271,41.14307 43.1350271,41.14307 C47.069137,41.0731316 64,38.1873229 64,62.0897392 Z" fill="#A0CFEB" id="path880" stroke="#262626" stroke-width="0.1"/><path d="M49.746272,76.3678845 C50.9615794,75.7078023 52.3621525,75.3315051 53.8523864,75.3315051 C56.2763945,75.3315051 58.4611065,76.3264497 60,77.9192462 C53.9417159,88.5196472 43.3808154,93 43.3808154,93 L43.3808154,93 C43.3808154,93 33.0930094,88.7743247 27,77.8698457 C28.5361272,76.3058117 30.7011811,75.3314908 33.0999987,75.3314908 C34.7713342,75.3314908 36.3288263,75.8041862 37.639371,76.6200304 C39.1798389,75.0079562 41.3781027,74 43.8186201,74 C46.1289762,74 48.2222692,74.9039575 49.7462278,76.3678731 L49.746272,76.3678845 Z" fill="#94BB79" id="path882" stroke="#262626" stroke-width="0.1"/><path d="M44.7658672,47.0006065 C46.008554,47.0006065 47,47.6594498 47,48.7399051 C47,49.507423 46.4995885,50.0643832 45.7711873,50.44822 C45.5015754,49.3129294 44.9841023,48.7399051 44.1998303,48.7399051 C44.1338333,48.7399051 44.0685873,48.7468621 44.0046524,48.7601154 C44.0487128,49.9262186 44.9531667,51.679434 44.9531667,53.5671713 C44.9531667,54.5271897 44.2438907,55 43.9538423,55 C43.9538423,52.3823558 42,51.4079158 42,49.7555933 C42,49.4923561 42.0367487,49.167986 42.1271189,48.8424587 C42.2741107,48.3133292 42.9333275,47.456685 43.715728,47.1921279 C44.2913243,46.9976399 44.670992,46.9976399 44.7658624,47.0006205 L44.7658672,47.0006065 Z" fill="#FFFFFF" id="path908" stroke="#262626" stroke-width="0.1"/><path d="M33.7661428,49.000736 C35.0085949,49.000736 36,49.6590567 36,50.7394784 C36,51.5069674 35.4996076,52.0645687 34.7712341,52.448234 C34.5016324,51.3124896 33.9843664,50.7394784 33.1991861,50.7394784 C33.1331917,50.7394784 33.0686974,50.7464351 33.0045792,50.7603513 C33.048076,51.9262452 33.9532447,53.6790693 33.9532447,55.5672266 C33.9532447,56.5265469 33.2432448,57 32.9539584,57 C32.9539584,54.3819493 31,53.4080522 31,51.7551326 C31,51.4924004 31.037122,51.1675474 31.1273014,50.8425274 C31.2742875,50.3130868 31.9329173,49.4569713 32.7158499,49.192413 C33.2914243,48.9979323 33.6703283,48.9972689 33.7661317,49.0007472 L33.7661428,49.000736 Z" fill="#FFFFFF" id="path916" stroke="#262626" stroke-width="0.1"/><path d="M54.7658672,49.000736 C56.008554,49.000736 57,49.6590567 57,50.7394784 C57,51.5069674 56.4995885,52.0645687 55.7711873,52.448234 C55.5015754,51.3124896 54.9841023,50.7394784 54.199643,50.7394784 C54.1332714,50.7394784 54.0685873,50.7464351 54.0046524,50.7603513 C54.0481508,51.9262452 54.9531667,53.6790693 54.9531667,55.5672266 C54.9531667,56.5265469 54.2433271,57 53.9538423,57 C53.9538423,54.3819493 52,53.4080522 52,51.7551326 C52,51.4924004 52.0367487,51.1675474 52.1273062,50.8425274 C52.2741107,50.3130868 52.9327655,49.4569713 53.7159153,49.192413 C54.2913227,48.9979323 54.67043,48.9972689 54.7658624,49.0007472 L54.7658672,49.000736 Z" fill="#FFFFFF" id="path928" stroke="#262626" stroke-width="0.1"/><path d="M31.0053176,62 L31,59.8851595 L33.4971801,59 L35.9946824,59.6126451 L36,62 L31.0053176,62 Z" fill="#000000" id="polygon936" stroke="#262626" stroke-width="0.1"/><path d="M36.0296625,72.6559522 L37,76.7948016 C35.9921867,76.3358643 34.8793726,76.0808999 33.7081465,76.0808999 C32.3735105,76.0808999 31.1133258,76.4122675 30,77 L31.1074143,72.8222495 L31.081923,64.6938648 L30,63.3457926 L30,60.5173427 L31.50615,59.853382 L31.50615,61.6302542 L32.613733,61.1721938 L32.613733,59.4021612 L33.4998328,59 L34.3855953,59.264252 L34.3855953,61.0602187 L35.4931782,61.3560129 L35.4931782,59.577212 L37,59.9888358 L37,62.9091085 L36.0296625,64.4038508 L36.0296625,72.6559566 L36.0296625,72.6559522 Z" fill="#FFFFFF" id="path938" stroke="#262626" stroke-width="0.1"/><path d="M33.9999445,72.3359929 L33.9999445,63.8307582 L33.9999445,62.0274506 L33.9999445,59.0001484 L33.9996178,59 L32.9871746,59.4023322 L32.9871746,61.1723472 L31.7214276,61.6307547 L31.7214276,59.8533809 L30.0000016,60.5169848 L30.0000016,63.3454065 L31.2371955,64.6932902 L31.2663253,72.8215938 L30,77 C31.2065205,76.442937 32.5631263,76.1159554 34,76.0833615 L34,76.0560257 L34,72.3360315 L33.9999445,72.3359929 Z" fill="#BDBFC1" id="path940" stroke="#262626" stroke-width="0.1"/><path d="M36.0296625,72.6559522 L37,76.7948016 C35.9921867,76.3358643 34.8793726,76.0808999 33.7081465,76.0808999 C32.3735105,76.0808999 31.1133258,76.4122675 30,77 L31.1074143,72.8222495 L31.081923,64.6938648 L30,63.3457926 L30,60.5173427 L31.50615,59.853382 L31.50615,61.6302542 L32.613733,61.1721938 L32.613733,59.4021612 L33.4998328,59 L34.3855953,59.264252 L34.3855953,61.0602187 L35.4931782,61.3560129 L35.4931782,59.577212 L37,59.9888358 L37,62.9091085 L36.0296625,64.4038508 L36.0296625,72.6559566 L36.0296625,72.6559522 Z" id="path944" stroke="#262626" stroke-width="0.1"/><path d="M52.0046732,62 L52,59.6303327 L54.4972605,59 L56.9945211,59.7424822 L57,62 L52.0046732,62 Z" fill="#000000" id="polygon946" stroke="#262626" stroke-width="0.1"/><path d="M41.0053176,61 L41,58.8224046 L43.4971801,58 L45.9946824,58.7085627 L46,61 L41.0053176,61 Z" fill="#000000" id="polygon948" stroke="#262626" stroke-width="0.1"/><path d="M46.0294997,71.13317 L46.9999814,75.3394037 C46.1127219,74.9879391 45.1528794,74.7964442 44.1516774,74.7964442 C42.6364467,74.7964442 41.2174471,75.234919 40,76 L41.1075551,71.2099214 L41.0818959,62.7967372 L40,61.3824106 L40,58.4415276 L41.5064552,57.8068725 L41.5064552,59.6335556 L42.6140103,59.2098528 L42.6140103,57.3660565 L43.5000879,57 L44.3854894,57.3192181 L44.3854894,59.1649972 L45.4930446,59.4930433 L45.4930446,57.6885218 L47,58.2053601 L47,61.1981316 L46.0295182,62.6731671 L46.0295182,71.1331914 L46.0294997,71.13317 Z" fill="#FFFFFF" id="path950" stroke="#262626" stroke-width="0.1"/><path d="M43.9999722,74.8184303 L43.9999722,73.1956709 L43.9999722,70.6871308 L43.9999722,61.9666254 L43.9999722,60.112747 L43.9999722,57 L43.9998089,57 L42.9878008,57.366778 L42.9878008,59.2105746 L41.7215376,59.6330177 L41.7215376,57.8070511 L40,58.4415248 L40,61.3824083 L41.2371332,62.796735 L41.266456,71.2099206 L40,76 C41.1898702,75.3457089 42.5485459,74.9304726 44,74.8240066 L44,74.8184242 L43.9999722,74.8184303 Z" fill="#BDBFC1" id="path952" stroke="#262626" stroke-width="0.1"/><path d="M46.0294997,71.13317 L46.9999814,75.3394037 C46.1127219,74.9879391 45.1528794,74.7964442 44.1516774,74.7964442 C42.6364467,74.7964442 41.2174471,75.234919 40,76 L41.1075551,71.2099214 L41.0818959,62.7967372 L40,61.3824106 L40,58.4415276 L41.5064552,57.8068725 L41.5064552,59.6335556 L42.6140103,59.2098528 L42.6140103,57.3660565 L43.5000879,57 L44.3854894,57.3192181 L44.3854894,59.1649972 L45.4930446,59.4930433 L45.4930446,57.6885218 L47,58.2053601 L47,61.1981316 L46.0295182,62.6731671 L46.0295182,71.1331914 L46.0294997,71.13317 Z" id="path956" stroke="#262626" stroke-width="0.1"/><path d="M57.0296588,72.6560442 L57.9999957,76.5801565 C57.051604,76.1848567 56.0159375,75.9669266 54.9297973,75.9669266 C53.5058606,75.9669266 52.1668375,76.3415129 51,77 L52.1074136,72.5697152 L52.0820925,64.4503067 L51.0000014,63.019496 L51.0000014,60.1420377 L52.506322,59.6421241 L52.506322,61.4069636 L53.6139043,61.066667 L53.6139043,59.285292 L54.5000036,59 L55.3855969,59.307746 L55.3855969,61.0919064 L56.4931792,61.4772849 L56.4931792,59.7331515 L58,60.2558668 L58,63.1113958 L57.0296631,64.5275841 L57.0296631,72.6560413 L57.0296588,72.6560442 Z" fill="#FFFFFF" id="path958" stroke="#262626" stroke-width="0.1"/><path d="M55,72.2471521 L55,63.7985958 L55,62.0073053 L55,59 L53.9879436,59.2852916 L53.9879436,61.0668406 L52.7216198,61.4069628 L52.7216198,59.6421261 L51,60.1420389 L51,63.0196696 L52.2366141,64.449781 L52.2665165,72.5698842 L51,77 C52.198994,76.4080077 53.5561813,76.0456055 54.9999951,75.9784175 L54.9999951,75.942386 L54.9999951,72.2471816 L55,72.2471521 Z" fill="#BDBFC1" id="path960" stroke="#262626" stroke-width="0.1"/><path d="M57.0296588,72.6560442 L57.9999957,76.5801565 C57.051604,76.1848567 56.0159375,75.9669266 54.9297973,75.9669266 C53.5058606,75.9669266 52.1668375,76.3415129 51,77 L52.1074136,72.5697152 L52.0820925,64.4503067 L51.0000014,63.019496 L51.0000014,60.1420377 L52.506322,59.6421241 L52.506322,61.4069636 L53.6139043,61.066667 L53.6139043,59.285292 L54.5000036,59 L55.3855969,59.307746 L55.3855969,61.0919064 L56.4931792,61.4772849 L56.4931792,59.7331515 L58,60.2558668 L58,63.1113958 L57.0296631,64.5275841 L57.0296631,72.6560413 L57.0296588,72.6560442 Z" id="path964" stroke="#262626" stroke-width="0.1"/><path d="M42.505751,40.8468554 C42.8244959,40.4022673 43.4335422,40.1128999 44.0216732,40.1128999 C44.6106401,40.1128999 45.2188492,40.4022673 45.5375954,40.8468554 L51.6247013,38.0000142 L52,47 L45.55131,43.1574356 C45.0654125,43.6684279 44.6906153,43.9313667 44.0223405,43.9313667 C43.3535614,43.9320748 42.9156853,43.6102191 42.4921952,43.1574356 L36,46.9559996 L36.4188024,38 L42.505751,40.8468554 Z" fill="#D99F31" id="path986" stroke="#262626" stroke-width="0.1"/><path d="M67.9999852,58.1172645 C67.9999852,47.9806305 63.9800262,37 56.0066148,37 C53.2824327,37 50.3612195,38.4091015 50.3612195,41.0696511 C50.3612195,43.7303772 51.920875,45.6870709 54.2495874,45.6870709 C56.5782998,45.6870709 57.4339829,44.3235137 57.4339829,44.3235137 C58.4011316,44.9621989 61.9146738,47.1634329 62.4210818,58.136173 C63.4078285,79.5220344 45,92 45,92 C45,92 68,82.1961978 68,58.1173371 L67.9999852,58.1172645 Z" fill="#D99F31" id="path994" stroke="#262626" stroke-width="0.1"/><path d="M19,58.1172645 C19,47.9806305 23.0199849,37 30.993981,37 C33.7176621,37 36.6388941,38.4091015 36.6388941,41.0696511 C36.6388941,43.7303772 35.0792286,45.6870709 32.7505012,45.6870709 C30.4219515,45.6870709 29.5660852,44.3235137 29.5660852,44.3235137 C28.5989302,44.9621989 25.0853654,47.1634329 24.5789541,58.136173 C23.5927256,79.5220344 42,92 42,92 C42,92 19,82.1961978 19,58.1173371 L19,58.1172645 Z" fill="#D99F31" id="path1022" stroke="#262626" stroke-width="0.1"/><path d="M44.0000746,93 C39.2894963,91.207224 33.8282035,87.5195698 30.4222563,84.4225697 C23.9373895,78.5246744 18.1619698,68.7746401 19.1005618,55.3366728 C19.6938469,46.85129 22.2113422,41.4783488 25.4691016,38.6665477 C31.0400866,33.858603 38.2246401,36.0473403 38.2246401,41.2966757 C38.2246401,44.1852882 35.8699554,46.5333584 32.96675,46.5333584 C31.209004,46.5333584 29.3532278,45.1134944 29.5369477,42.9809205 C29.5865761,41.838614 30.5324897,40.9273995 31.6920631,40.9273995 C32.8835092,40.9273995 33.849449,41.8885378 33.849449,43.0752285 C33.849449,43.7305506 33.4179379,44.3626415 32.9533393,44.7570514 C34.7882238,44.6918651 36.3965436,43.1405909 36.3965436,41.2966757 C36.3965436,39.4059515 34.9541659,37.8241611 32.8908117,37.6535701 C25.9951589,37.0830238 21.538996,44.8844735 20.7872496,55.4636106 C19.7183965,70.4954926 27.9517666,82.6464682 40.3241339,89.484933 C42.0590569,90.4436451 43.418372,91.0275471 43.9999921,91.2707663 C44.5821326,91.0275339 45.9409273,90.4436392 47.6758503,89.484933 C60.0482913,82.6465269 68.2816452,70.4954926 67.2127346,55.4636106 C66.4609852,44.8844882 62.0048253,37.0830253 55.1091725,37.6535701 C53.0458212,37.8241625 51.6041483,39.4059515 51.6041483,41.2966757 C51.6041483,43.1405909 53.2117751,44.6918651 55.0473526,44.7570514 C54.5825814,44.3626444 54.1503729,43.7305536 54.1503729,43.0752285 C54.1503729,41.8885407 55.1164853,40.9273995 56.3079358,40.9273995 C57.4675136,40.9273995 58.4141172,41.8386096 58.4637589,42.9809205 C58.647299,45.1134841 56.7909949,46.5333584 55.0332636,46.5333584 C52.1300582,46.5333584 49.7758895,44.1852882 49.7758895,41.2966757 C49.7758895,36.0473403 56.9600892,33.858603 62.5308973,38.6665477 C65.7893496,41.4783635 68.3068479,46.8513193 68.8994371,55.3366728 C69.838035,68.7745961 64.0626094,78.5246891 57.5777426,84.4225697 C54.1717954,87.5195698 48.7105174,91.2072386 43.9999243,93 L44.0000746,93 Z" fill="#F1BF31" id="path1052" stroke="#262626" stroke-width="0.1"/><path d="M44.4869416,99.7324151 C46.7488286,99.7050909 48.4496377,99.4839993 50.3837377,99.0914611 C49.9273981,100.686082 49.0150675,103.719582 52.6617883,103.719582 C55.3153958,103.719582 58.1323012,102.078889 60.8677268,103.521885 C66.8421787,106.672009 71.353113,104.422327 75,100.204603 C75,100.204603 72.3036465,100.796625 69.5294812,100.67304 C69.5294812,100.67304 71.6077593,98.8521569 71.8087525,96.454775 C69.9851355,97.8606225 68.1613419,98.0659979 66.3371954,98.0659979 C64.5146226,98.0659979 63.3486678,96.9337479 60.9611785,96.5465714 C61.0956304,95.6982764 61.2398113,94.8342681 61.4548649,93.6430769 C61.6892016,92.3425964 61.3405623,91.2871403 59.500439,91.0647936 C55.4958706,90.5815341 51.617081,92.9563956 44.5305185,93.0706913 C37.3955095,92.9563941 32.5050178,90.5815281 28.4997434,91.0647936 C26.6596244,91.2871357 26.3109823,92.3425934 26.5454939,93.6430769 C26.760374,94.8342621 26.904555,95.6982673 27.0381391,96.5465714 C24.6515175,96.9337509 23.4854009,98.0659979 21.6629899,98.0659979 C19.8379756,98.0659979 18.0150498,97.860621 16.1912563,96.454775 C16.3922407,98.8521418 18.4706894,100.67304 18.4706894,100.67304 C15.6967006,100.796623 13,100.204603 13,100.204603 C16.6474106,104.422324 21.1579919,106.672009 27.1324438,103.521885 C29.8678694,102.078891 32.6847748,103.719582 35.3383823,103.719582 C38.9851016,103.719582 38.0727636,100.686082 37.6166094,99.0914611 C39.68621,99.5115004 41.9771002,99.7427726 44.486015,99.7427726 L44.4868975,99.7324151 L44.4869416,99.7324151 Z" fill="#FFFFFF" id="path1056" stroke="#262626" stroke-width="0.1"/><path d="M32.6461912,96.8686327 C32.1306169,96.8278535 31.3008453,96.7851658 31.3008453,96.7851658 L31,93 L31.9969291,93.1096701 L32.2039481,96.0632966 C32.3051071,96.0688501 32.7526164,96.0962669 33.0508302,96.1262872 C33.3898464,96.1602977 33.937386,96.2397743 33.937386,96.2397743 L34,97 C34,97 33.1640245,96.9094178 32.6461928,96.8686386 L32.6461912,96.8686327 Z" fill="#000000" id="path1076"/><path d="M42.0241507,97.9113248 C41.6506522,97.8635873 41.0543746,97.7509456 41.0543746,97.7509456 L41.0270549,95.8791362 L41,94 L42.5917924,94.2238512 L42.5968096,94.5934204 L42.6023519,94.9687117 L41.71229,94.8435556 L41.7235089,95.6150559 L42.6589714,95.7462915 L42.6692628,96.4441275 L41.7338003,96.3128919 L41.7447509,97.1062046 C41.8158867,97.1210398 42.1359348,97.1877346 42.3509278,97.2136599 C42.592712,97.2431608 42.9893063,97.2544249 42.9893063,97.2544249 L43,98 C43,98 42.3968592,97.959235 42.0241518,97.9113173 L42.0241507,97.9113248 Z" fill="#000000" id="path1078"/><path d="M50,94.4369142 L48.9319715,94.5986032 L48.9479756,97.5700146 L48.0879993,97.6999969 L48.0719953,94.7288861 L47.0041036,94.8905751 L47,94.1542589 L49.9960332,93.6999969 L50,94.4369142 Z" fill="#000000" id="polygon1080"/><path d="M56.2851782,96.9992356 C55.6374832,97.0101814 55.2950083,96.9024113 55,96.7505217 L55.2759086,96.0415753 C55.6433448,96.1600981 55.8574153,96.209513 56.2870692,96.2024006 C56.7598394,96.1940176 56.9911186,96.051056 56.9945226,95.8440979 C56.9971644,95.7055177 56.8874882,95.6086949 56.7006495,95.5209884 C56.5136219,95.4330998 56.2643782,95.3607096 56.014944,95.2669853 C55.5151309,95.0791723 55.0011368,94.8029242 55.0130507,94.1432105 C55.0270444,93.3943315 55.8941048,93.0123249 56.5902111,93.0006551 C57.2159693,92.9898946 57.5669541,93.1135244 57.871417,93.2373349 L57.618201,93.9245827 C57.3103325,93.843805 57.0011416,93.7745148 56.6055274,93.7816257 C56.2146412,93.7880017 55.9865771,93.9834798 55.9839288,94.1233353 C55.9818474,94.2318294 56.0915316,94.3182607 56.2844209,94.4059656 C56.4739079,94.4920325 56.7278796,94.5720785 56.981094,94.6745548 C57.4892265,94.8793252 58.0111653,95.1772734 57.9998183,95.7966885 C57.9837447,96.6485904 57.0968273,96.9859247 56.2851702,96.9992341 L56.2851782,96.9992356 Z" fill="#000000" id="path1082"/><path d="M38.0162984,95.4073543 L38.3953231,95.4740712 C38.9600993,95.5732865 39.0035598,95.372704 38.9997988,95.1282181 C38.9939432,94.8329412 38.8608514,94.6515133 38.2900145,94.5510061 L38,94.5 L38.016293,95.4073543 L38.0162984,95.4073543 Z M38.0142417,96.384248 L38.418641,96.4658191 C38.8897734,96.5602292 39.0043558,96.4573301 38.9998751,96.1786225 C38.9947534,95.8591373 38.8316821,95.6672956 38.3231035,95.5651446 L38,95.5 L38.014243,96.384248 L38.0142417,96.384248 Z M38.5236361,97.4520976 L37.0659601,97.1951332 L37,93.5 L38.310944,93.7308237 C39.2107963,93.8889149 39.6964584,94.2965026 39.7090304,94.9982212 C39.7138569,95.2919968 39.5533426,95.4868991 39.3778503,95.5919967 C39.6310144,95.737817 39.9906107,96.0716047 39.9997386,96.5611724 C40.0117974,97.247776 39.6079366,97.6427375 38.5236405,97.4521036 L38.5236361,97.4520976 Z" fill="#000000" id="path1084"/><path d="M36,97 L34.3655914,96.8501472 L34,93 L35.6344086,93.1500077 L36,97 Z" fill="#000000" id="polygon1086"/><path d="M45.3103365,95.9953331 C45.793959,95.987172 46.0058869,95.7875684 45.9998758,95.4684312 C45.993696,95.1331453 45.8439354,94.9926382 45.4056523,95.000296 L45,95.0067939 L45.0178618,96 L45.3103365,95.9953345 L45.3103365,95.9953331 Z M46.8527004,97.9621245 C46.2209933,97.9361744 45.8809953,97.5412375 45.5478333,97.0750786 L45.1953834,96.5824018 C45.1452725,96.5877102 45.091212,96.5888488 45.0368494,96.5901639 L44.8280517,96.5948949 L44.8468818,97.98352 L44.0549707,98 L44,94.0269601 L45.2295504,94.0004407 C45.9353618,93.9849005 46.4559124,94.3798454 46.4686676,95.263671 C46.4745947,95.6944081 46.3160556,96.0768422 45.9930659,96.32517 L46.2988968,96.7240842 C46.4707942,96.9464603 46.6630388,97.0943972 47,97.1957359 L46.852703,97.9621213 L46.8527004,97.9621245 Z" fill="#000000" id="path1116"/><path d="M51.9559357,94.0303566 C51.8107304,94.6892167 51.6566198,95.3446083 51.5,96 C51.8321909,95.9575027 52.1805941,95.8823357 52.5,95.7612029 C52.3563934,95.1757744 52.2152959,94.5915013 52.0833338,94 L51.9559357,94.0303542 L51.9559357,94.0303566 Z M53.0019706,97.3570964 L52.6316677,96.202002 C52.4351907,96.2842884 52.2234362,96.3327166 52.0104216,96.3694485 C51.7956095,96.4061805 51.5793607,96.4314197 51.3740761,96.4675366 L50.9694395,97.7929495 L50,98 L51.1718476,94.3081762 L50.761458,94.3962082 L50.7539091,93.5456374 C51.6205266,93.3839363 52.4610731,93.2035618 53.2998389,93 L53.3338135,93.8450303 L52.9200086,93.9336791 L54,97.1434803 L53.0019797,97.3570981 L53.0019706,97.3570964 Z" fill="#000000" id="path1118"/></g></g></g></svg>