<?xml version="1.0" ?><svg height="182px" version="1.1" viewBox="0 0 182 182" width="182px" xmlns="http://www.w3.org/2000/svg" xmlns:sketch="http://www.bohemiancoding.com/sketch/ns" xmlns:xlink="http://www.w3.org/1999/xlink"><title/><defs/><g fill="none" fill-rule="evenodd" id="Ameria" stroke="none" stroke-width="1"><g id="Group" transform="translate(-37.000000, 1.000000)"><g id="St.Kitts-and-Nevis" transform="translate(0.000000, 162.000000)"><path d="M212.878829,158.000001 C200.523738,192.955772 167.186567,218 128,218 C88.8134331,218 55.4762623,192.955772 43.1211708,158 L212.878833,158 Z M217.999969,128.07551 C217.99999,128.050342 218,128.025172 218,128 C218,127.974825 217.99999,127.949653 217.999969,127.924483 L217.999969,128.07551 Z M38.0054925,126.995277 C38.001834,127.32975 38,127.664661 38,128 C38,128.335339 38.001834,128.67025 38.0054925,129.004723 L38.0054928,126.995251 Z M38.0054925,126.995277" fill="#CA4638" id="Oval-15-copy-2" transform="translate(128.000000, 128.000000) rotate(-45.000000) translate(-128.000000, -128.000000) "/><path d="M212.85805,157.979221 C200.502958,192.934993 167.165788,217.979221 127.979221,217.979221 C88.7926537,217.979221 55.4554829,192.934993 43.1003914,157.979221 L212.858054,157.979221 Z M217.97919,128.054731 C217.97921,128.029563 217.979221,128.004393 217.979221,127.979221 C217.979221,127.954046 217.97921,127.928874 217.97919,127.903704 L217.97919,128.054731 Z M37.9847132,126.974498 C37.9810546,127.308971 37.9792206,127.643881 37.9792206,127.979221 C37.9792206,128.31456 37.9810546,128.649471 37.9847132,128.983944 L37.9847134,126.974472 Z M37.9847132,126.974498" fill="#479951" id="Oval-15-copy-3" transform="translate(127.979221, 127.979221) scale(-1, -1) rotate(-45.000000) translate(-127.979221, -127.979221) "/></g><g id="US" transform="translate(38.000000, 0.000000)"><circle cx="90" cy="90" d="M90,180 C139.70563,180 180,139.70563 180,90 C180,40.2943701 139.70563,0 90,0 C40.2943701,0 0,40.2943701 0,90 C0,139.70563 40.2943701,180 90,180 Z M90,180" fill="#FFFFFF" id="Oval-1-copy" r="90"/><path d="M138.229203,14 C144.461203,17.9630629 150.172735,22.6715701 155.238278,28 L155.238278,28 L24.7617221,28 C29.8272649,22.6715701 35.5387969,17.9630629 41.7707969,14 L138.229203,14 Z M166.145271,42 C168.93825,46.421382 171.356776,51.1028986 173.356297,55.9999995 L173.356301,56 L6.6437031,55.9999995 C8.64322407,51.1028986 11.0617496,46.421382 13.8547293,42 L166.145271,42 L166.145271,42 Z M177.769836,70 C178.801287,74.5455967 179.488674,79.2218724 179.803173,84.0000001 L179.803173,84 L0.196827299,84 C0.511325591,79.2218723 1.19871346,74.5455967 2.23016395,70 L177.769836,70 L177.769836,70 Z M179.649302,98 C179.227926,102.783936 178.432256,107.460425 177.29176,112 L177.29176,112 L2.70824012,112 C1.56774359,107.460425 0.772073852,102.783936 0.350697708,98 L179.649302,98 L179.649302,98 Z M172.511214,126 C170.365649,130.910676 167.794543,135.592881 164.844509,140.000003 L164.844511,140 L15.1554911,140.000003 C12.2054566,135.592881 9.63435101,130.910676 7.48878552,126 L172.511214,126 L172.511214,126 Z M153.277183,154 C147.804081,159.411672 141.640368,164.126356 134.930091,168.000002 L134.930094,168 L45.0699089,168.000002 C38.3596325,164.126356 32.1959191,159.411672 26.7228172,154 L153.277183,154 L153.277183,154 Z M153.277183,154" fill="#FFFFFF" id="white"/><path d="M90,41.9999979 L166.145271,42 L166.145268,41.9999957 C162.97137,36.9756079 159.313914,32.2871499 155.238277,27.9999987 L155.238284,28 L90,27.9999994 L90,41.9999979 Z M90,0 C107.744061,0 124.288782,5.13498604 138.229203,14 L138.229203,14 L90,14 L90,0 Z M90,70 L177.769836,70 L177.769836,70 C176.674889,65.1745748 175.192214,60.496413 173.356297,56 L173.356297,56 L90,56 L90,70 Z M0,90 C0,92.6959963 0.11854187,95.3643056 0.350697708,98 L179.649302,98 L179.649302,98 C179.881458,95.3643056 180,92.6959963 180,90 C180,87.9838287 179.933704,85.9831417 179.803173,84 L179.803173,84 L90,84 L90,90 L0,90 Z M177.29176,112 C176.077354,116.83376 174.471981,121.512284 172.511214,126 L172.511214,126 L7.48878552,126 C5.52801935,121.512284 3.92264595,116.83376 2.70824012,112 L177.29176,112 L177.29176,112 Z M164.844511,140 C161.463169,145.051463 157.583996,149.741526 153.277183,154 L153.277183,154 L26.7228172,154 C22.4160038,149.741526 18.536831,145.051463 15.155489,140 L164.844511,140 L164.844511,140 Z M134.930091,168.000002 C121.708101,175.63267 106.364073,180 90,180 C73.635927,180 58.2918993,175.63267 45.0699089,168.000002 L134.930094,168 L134.930091,168.000002 Z M134.930091,168.000002" fill="#CA4638" id="red"/><path d="M90,0 C40.2943701,0 2.68414424e-14,40.2943701 1.34099943e-29,90 L90,90 L90,0 Z M90,0" fill="#346DA6" id="Oval-38-copy-3"/><g fill="#FFFFFF" id="stars" transform="translate(7.000000, 9.000000)"><polygon d="M27.4143487,25.4626163 L24.6861315,26.9999999 L25.2071745,23.7437694 L23,21.4376941 L26.0502405,20.962616 L27.4143489,18 L28.7784581,20.9626168 L31.8286984,21.4376965 L29.621523,23.74377 L30.1425661,27 L27.4143487,25.4626163 Z M27.4143487,25.4626163" id="Star-1" points="27.4143487 25.4626163 24.6861315 26.9999999 25.2071745 23.7437694 23 21.4376941 26.0502405 20.962616 27.4143489 18 28.7784581 20.9626168 31.8286984 21.4376965 29.621523 23.74377 30.1425661 27 "/><polygon d="M27.4143487,41.4626163 L24.6861315,42.9999999 L25.2071745,39.7437694 L23,37.4376941 L26.0502405,36.962616 L27.4143489,34 L28.7784581,36.9626168 L31.8286984,37.4376965 L29.621523,39.74377 L30.1425661,43 L27.4143487,41.4626163 Z M27.4143487,41.4626163" id="Star-1" points="27.4143487 41.4626163 24.6861315 42.9999999 25.2071745 39.7437694 23 37.4376941 26.0502405 36.962616 27.4143489 34 28.7784581 36.9626168 31.8286984 37.4376965 29.621523 39.74377 30.1425661 43 "/><polygon d="M16.4143487,35.4626163 L13.6861315,36.9999999 L14.2071745,33.7437694 L12,31.4376941 L15.0502405,30.962616 L16.4143489,28 L17.7784581,30.9626168 L20.8286984,31.4376965 L18.621523,33.74377 L19.1425661,37 L16.4143487,35.4626163 Z M16.4143487,35.4626163" id="Star-1" points="16.4143487 35.4626163 13.6861315 36.9999999 14.2071745 33.7437694 12 31.4376941 15.0502405 30.962616 16.4143489 28 17.7784581 30.9626168 20.8286984 31.4376965 18.621523 33.74377 19.1425661 37 "/><polygon d="M15.4143487,50.4626163 L12.6861315,51.9999999 L13.2071745,48.7437694 L11,46.4376941 L14.0502405,45.962616 L15.4143489,43 L16.7784581,45.9626168 L19.8286984,46.4376965 L17.621523,48.74377 L18.1425661,52 L15.4143487,50.4626163 Z M15.4143487,50.4626163" id="Star-1" points="15.4143487 50.4626163 12.6861315 51.9999999 13.2071745 48.7437694 11 46.4376941 14.0502405 45.962616 15.4143489 43 16.7784581 45.9626168 19.8286984 46.4376965 17.621523 48.74377 18.1425661 52 "/><polygon d="M25.4143487,60.4626163 L22.6861315,61.9999999 L23.2071745,58.7437694 L21,56.4376941 L24.0502405,55.962616 L25.4143489,53 L26.7784581,55.9626168 L29.8286984,56.4376965 L27.621523,58.74377 L28.1425661,62 L25.4143487,60.4626163 Z M25.4143487,60.4626163" id="Star-1" points="25.4143487 60.4626163 22.6861315 61.9999999 23.2071745 58.7437694 21 56.4376941 24.0502405 55.962616 25.4143489 53 26.7784581 55.9626168 29.8286984 56.4376965 27.621523 58.74377 28.1425661 62 "/><polygon d="M15.4143487,66.4626163 L12.6861315,67.9999999 L13.2071745,64.7437694 L11,62.4376941 L14.0502405,61.962616 L15.4143489,59 L16.7784581,61.9626168 L19.8286984,62.4376965 L17.621523,64.74377 L18.1425661,68 L15.4143487,66.4626163 Z M15.4143487,66.4626163" id="Star-1" points="15.4143487 66.4626163 12.6861315 67.9999999 13.2071745 64.7437694 11 62.4376941 14.0502405 61.962616 15.4143489 59 16.7784581 61.9626168 19.8286984 62.4376965 17.621523 64.74377 18.1425661 68 "/><polygon d="M4.41434873,58.4626163 L1.68613145,59.9999999 L2.20717446,56.7437694 L2.94464199e-16,54.4376941 L3.05024047,53.962616 L4.41434888,51 L5.77845813,53.9626168 L8.82869837,54.4376965 L6.62152301,56.74377 L7.14256611,60 L4.41434873,58.4626163 Z M4.41434873,58.4626163" id="Star-1" points="4.41434873 58.4626163 1.68613145 59.9999999 2.20717446 56.7437694 2.94464199e-16 54.4376941 3.05024047 53.962616 4.41434888 51 5.77845813 53.9626168 8.82869837 54.4376965 6.62152301 56.74377 7.14256611 60 "/><polygon d="M4.41434873,74.4626163 L1.68613145,75.9999999 L2.20717446,72.7437694 L2.94464199e-16,70.4376941 L3.05024047,69.962616 L4.41434888,67 L5.77845813,69.9626168 L8.82869837,70.4376965 L6.62152301,72.74377 L7.14256611,76 L4.41434873,74.4626163 Z M4.41434873,74.4626163" id="Star-1" points="4.41434873 74.4626163 1.68613145 75.9999999 2.20717446 72.7437694 2.94464199e-16 70.4376941 3.05024047 69.962616 4.41434888 67 5.77845813 69.9626168 8.82869837 70.4376965 6.62152301 72.74377 7.14256611 76 "/><polygon d="M27.4143487,74.4626163 L24.6861315,75.9999999 L25.2071745,72.7437694 L23,70.4376941 L26.0502405,69.962616 L27.4143489,67 L28.7784581,69.9626168 L31.8286984,70.4376965 L29.621523,72.74377 L30.1425661,76 L27.4143487,74.4626163 Z M27.4143487,74.4626163" id="Star-1" points="27.4143487 74.4626163 24.6861315 75.9999999 25.2071745 72.7437694 23 70.4376941 26.0502405 69.962616 27.4143489 67 28.7784581 69.9626168 31.8286984 70.4376965 29.621523 72.74377 30.1425661 76 "/><polygon d="M73.4143487,7.46261626 L70.6861315,8.99999993 L71.2071745,5.74376935 L69,3.43769412 L72.0502405,2.96261604 L73.4143489,-4.29601324e-16 L74.7784581,2.96261677 L77.8286984,3.43769649 L75.621523,5.74376997 L76.1425661,9 L73.4143487,7.46261626 Z M73.4143487,7.46261626" id="Star-1" points="73.4143487 7.46261626 70.6861315 8.99999993 71.2071745 5.74376935 69 3.43769412 72.0502405 2.96261604 73.4143489 -4.29601324e-16 74.7784581 2.96261677 77.8286984 3.43769649 75.621523 5.74376997 76.1425661 9 "/><polygon d="M73.4143487,23.4626163 L70.6861315,24.9999999 L71.2071745,21.7437694 L69,19.4376941 L72.0502405,18.962616 L73.4143489,16 L74.7784581,18.9626168 L77.8286984,19.4376965 L75.621523,21.74377 L76.1425661,25 L73.4143487,23.4626163 Z M73.4143487,23.4626163" id="Star-1" points="73.4143487 23.4626163 70.6861315 24.9999999 71.2071745 21.7437694 69 19.4376941 72.0502405 18.962616 73.4143489 16 74.7784581 18.9626168 77.8286984 19.4376965 75.621523 21.74377 76.1425661 25 "/><polygon d="M73.4143487,39.4626163 L70.6861315,40.9999999 L71.2071745,37.7437694 L69,35.4376941 L72.0502405,34.962616 L73.4143489,32 L74.7784581,34.9626168 L77.8286984,35.4376965 L75.621523,37.74377 L76.1425661,41 L73.4143487,39.4626163 Z M73.4143487,39.4626163" id="Star-1" points="73.4143487 39.4626163 70.6861315 40.9999999 71.2071745 37.7437694 69 35.4376941 72.0502405 34.962616 73.4143489 32 74.7784581 34.9626168 77.8286984 35.4376965 75.621523 37.74377 76.1425661 41 "/><polygon d="M73.4143487,55.4626163 L70.6861315,56.9999999 L71.2071745,53.7437694 L69,51.4376941 L72.0502405,50.962616 L73.4143489,48 L74.7784581,50.9626168 L77.8286984,51.4376965 L75.621523,53.74377 L76.1425661,57 L73.4143487,55.4626163 Z M73.4143487,55.4626163" id="Star-1" points="73.4143487 55.4626163 70.6861315 56.9999999 71.2071745 53.7437694 69 51.4376941 72.0502405 50.962616 73.4143489 48 74.7784581 50.9626168 77.8286984 51.4376965 75.621523 53.74377 76.1425661 57 "/><polygon d="M61.4143487,16.4626163 L58.6861315,17.9999999 L59.2071745,14.7437694 L57,12.4376941 L60.0502405,11.962616 L61.4143489,9 L62.7784581,11.9626168 L65.8286984,12.4376965 L63.621523,14.74377 L64.1425661,18 L61.4143487,16.4626163 Z M61.4143487,16.4626163" id="Star-1" points="61.4143487 16.4626163 58.6861315 17.9999999 59.2071745 14.7437694 57 12.4376941 60.0502405 11.962616 61.4143489 9 62.7784581 11.9626168 65.8286984 12.4376965 63.621523 14.74377 64.1425661 18 "/><polygon d="M61.4143487,32.4626163 L58.6861315,33.9999999 L59.2071745,30.7437694 L57,28.4376941 L60.0502405,27.962616 L61.4143489,25 L62.7784581,27.9626168 L65.8286984,28.4376965 L63.621523,30.74377 L64.1425661,34 L61.4143487,32.4626163 Z M61.4143487,32.4626163" id="Star-1" points="61.4143487 32.4626163 58.6861315 33.9999999 59.2071745 30.7437694 57 28.4376941 60.0502405 27.962616 61.4143489 25 62.7784581 27.9626168 65.8286984 28.4376965 63.621523 30.74377 64.1425661 34 "/><polygon d="M61.4143487,48.4626163 L58.6861315,49.9999999 L59.2071745,46.7437694 L57,44.4376941 L60.0502405,43.962616 L61.4143489,41 L62.7784581,43.9626168 L65.8286984,44.4376965 L63.621523,46.74377 L64.1425661,50 L61.4143487,48.4626163 Z M61.4143487,48.4626163" id="Star-1" points="61.4143487 48.4626163 58.6861315 49.9999999 59.2071745 46.7437694 57 44.4376941 60.0502405 43.962616 61.4143489 41 62.7784581 43.9626168 65.8286984 44.4376965 63.621523 46.74377 64.1425661 50 "/><polygon d="M61.4143487,64.4626163 L58.6861315,65.9999999 L59.2071745,62.7437694 L57,60.4376941 L60.0502405,59.962616 L61.4143489,57 L62.7784581,59.9626168 L65.8286984,60.4376965 L63.621523,62.74377 L64.1425661,66 L61.4143487,64.4626163 Z M61.4143487,64.4626163" id="Star-1" points="61.4143487 64.4626163 58.6861315 65.9999999 59.2071745 62.7437694 57 60.4376941 60.0502405 59.962616 61.4143489 57 62.7784581 59.9626168 65.8286984 60.4376965 63.621523 62.74377 64.1425661 66 "/><polygon d="M73.4143487,72.4626163 L70.6861315,73.9999999 L71.2071745,70.7437694 L69,68.4376941 L72.0502405,67.962616 L73.4143489,65 L74.7784581,67.9626168 L77.8286984,68.4376965 L75.621523,70.74377 L76.1425661,74 L73.4143487,72.4626163 Z M73.4143487,72.4626163" id="Star-1" points="73.4143487 72.4626163 70.6861315 73.9999999 71.2071745 70.7437694 69 68.4376941 72.0502405 67.962616 73.4143489 65 74.7784581 67.9626168 77.8286984 68.4376965 75.621523 70.74377 76.1425661 74 "/><polygon d="M51.4143487,9.46261626 L48.6861315,10.9999999 L49.2071745,7.74376935 L47,5.43769412 L50.0502405,4.96261604 L51.4143489,2 L52.7784581,4.96261677 L55.8286984,5.43769649 L53.621523,7.74376997 L54.1425661,11 L51.4143487,9.46261626 Z M51.4143487,9.46261626" id="Star-1" points="51.4143487 9.46261626 48.6861315 10.9999999 49.2071745 7.74376935 47 5.43769412 50.0502405 4.96261604 51.4143489 2 52.7784581 4.96261677 55.8286984 5.43769649 53.621523 7.74376997 54.1425661 11 "/><polygon d="M51.4143487,25.4626163 L48.6861315,26.9999999 L49.2071745,23.7437694 L47,21.4376941 L50.0502405,20.962616 L51.4143489,18 L52.7784581,20.9626168 L55.8286984,21.4376965 L53.621523,23.74377 L54.1425661,27 L51.4143487,25.4626163 Z M51.4143487,25.4626163" id="Star-1" points="51.4143487 25.4626163 48.6861315 26.9999999 49.2071745 23.7437694 47 21.4376941 50.0502405 20.962616 51.4143489 18 52.7784581 20.9626168 55.8286984 21.4376965 53.621523 23.74377 54.1425661 27 "/><polygon d="M51.4143487,41.4626163 L48.6861315,42.9999999 L49.2071745,39.7437694 L47,37.4376941 L50.0502405,36.962616 L51.4143489,34 L52.7784581,36.9626168 L55.8286984,37.4376965 L53.621523,39.74377 L54.1425661,43 L51.4143487,41.4626163 Z M51.4143487,41.4626163" id="Star-1" points="51.4143487 41.4626163 48.6861315 42.9999999 49.2071745 39.7437694 47 37.4376941 50.0502405 36.962616 51.4143489 34 52.7784581 36.9626168 55.8286984 37.4376965 53.621523 39.74377 54.1425661 43 "/><polygon d="M51.4143487,57.4626163 L48.6861315,58.9999999 L49.2071745,55.7437694 L47,53.4376941 L50.0502405,52.962616 L51.4143489,50 L52.7784581,52.9626168 L55.8286984,53.4376965 L53.621523,55.74377 L54.1425661,59 L51.4143487,57.4626163 Z M51.4143487,57.4626163" id="Star-1" points="51.4143487 57.4626163 48.6861315 58.9999999 49.2071745 55.7437694 47 53.4376941 50.0502405 52.962616 51.4143489 50 52.7784581 52.9626168 55.8286984 53.4376965 53.621523 55.74377 54.1425661 59 "/><polygon d="M39.4143487,18.4626163 L36.6861315,19.9999999 L37.2071745,16.7437694 L35,14.4376941 L38.0502405,13.962616 L39.4143489,11 L40.7784581,13.9626168 L43.8286984,14.4376965 L41.621523,16.74377 L42.1425661,20 L39.4143487,18.4626163 Z M39.4143487,18.4626163" id="Star-1" points="39.4143487 18.4626163 36.6861315 19.9999999 37.2071745 16.7437694 35 14.4376941 38.0502405 13.962616 39.4143489 11 40.7784581 13.9626168 43.8286984 14.4376965 41.621523 16.74377 42.1425661 20 "/><polygon d="M39.4143487,34.4626163 L36.6861315,35.9999999 L37.2071745,32.7437694 L35,30.4376941 L38.0502405,29.962616 L39.4143489,27 L40.7784581,29.9626168 L43.8286984,30.4376965 L41.621523,32.74377 L42.1425661,36 L39.4143487,34.4626163 Z M39.4143487,34.4626163" id="Star-1" points="39.4143487 34.4626163 36.6861315 35.9999999 37.2071745 32.7437694 35 30.4376941 38.0502405 29.962616 39.4143489 27 40.7784581 29.9626168 43.8286984 30.4376965 41.621523 32.74377 42.1425661 36 "/><polygon d="M39.4143487,50.4626163 L36.6861315,51.9999999 L37.2071745,48.7437694 L35,46.4376941 L38.0502405,45.962616 L39.4143489,43 L40.7784581,45.9626168 L43.8286984,46.4376965 L41.621523,48.74377 L42.1425661,52 L39.4143487,50.4626163 Z M39.4143487,50.4626163" id="Star-1" points="39.4143487 50.4626163 36.6861315 51.9999999 37.2071745 48.7437694 35 46.4376941 38.0502405 45.962616 39.4143489 43 40.7784581 45.9626168 43.8286984 46.4376965 41.621523 48.74377 42.1425661 52 "/><polygon d="M39.4143487,66.4626163 L36.6861315,67.9999999 L37.2071745,64.7437694 L35,62.4376941 L38.0502405,61.962616 L39.4143489,59 L40.7784581,61.9626168 L43.8286984,62.4376965 L41.621523,64.74377 L42.1425661,68 L39.4143487,66.4626163 Z M39.4143487,66.4626163" id="Star-1" points="39.4143487 66.4626163 36.6861315 67.9999999 37.2071745 64.7437694 35 62.4376941 38.0502405 61.962616 39.4143489 59 40.7784581 61.9626168 43.8286984 62.4376965 41.621523 64.74377 42.1425661 68 "/><polygon d="M51.4143487,74.4626163 L48.6861315,75.9999999 L49.2071745,72.7437694 L47,70.4376941 L50.0502405,69.962616 L51.4143489,67 L52.7784581,69.9626168 L55.8286984,70.4376965 L53.621523,72.74377 L54.1425661,76 L51.4143487,74.4626163 Z M51.4143487,74.4626163" id="Star-1" points="51.4143487 74.4626163 48.6861315 75.9999999 49.2071745 72.7437694 47 70.4376941 50.0502405 69.962616 51.4143489 67 52.7784581 69.9626168 55.8286984 70.4376965 53.621523 72.74377 54.1425661 76 "/></g></g></g></g></svg>