<?xml version="1.0" encoding="utf-8"?>
<!-- Generator: Adobe Illustrator 18.1.1, SVG Export Plug-In . SVG Version: 6.00 Build 0)  -->
<svg version="1.1" id="Layer_1" xmlns="http://www.w3.org/2000/svg" xmlns:xlink="http://www.w3.org/1999/xlink" x="0px" y="0px"
	 viewBox="0 0 200 200" enable-background="new 0 0 200 200" xml:space="preserve">
<g>
	<path fill="none" stroke="#2567B1" stroke-width="2" stroke-linecap="round" stroke-linejoin="round" stroke-miterlimit="10" d="
		M162.5,95.6c0.6,35.4-28.7,64.6-64.1,65.2c-35.4,0.6-63.4-27.6-64.1-62.9c-0.6-35.4,28.7-64.6,64.1-65.2
		C133.8,32.1,161.9,60.2,162.5,95.6z"/>
	
		<line fill="none" stroke="#2567B1" stroke-width="2" stroke-linecap="round" stroke-linejoin="round" stroke-miterlimit="10" x1="98.5" y1="105.5" x2="98.5" y2="64.7"/>
	<g>
		<path fill="#2567B1" d="M98.5,120C98.4,120,98.4,120,98.5,120c-2.2,0-3.9,1.8-3.8,3.9c0,2.1,1.7,3.8,3.8,3.8c0,0,0,0,0.1,0
			c2.1,0,3.8-1.8,3.8-3.9C102.3,121.7,100.6,120,98.5,120L98.5,120z"/>
	</g>
</g>
</svg>
